<svg id="Layer_1" data-name="Layer 1" xmlns="http://www.w3.org/2000/svg" viewBox="0 0 118 199.02"><defs><style>.cls-1{fill:#89d6f7;}.cls-2{fill:#333;}.cls-3{fill:#ccc;}.cls-4{fill:#fff;}.cls-5{fill:#101010;}.cls-6{fill:#666;}.cls-7{fill:#f59097;}</style></defs><title>masthead-head</title><path class="cls-1" d="M87.05,181.81Q84.86,183,82.55,184,84.86,183,87.05,181.81Z"/><path class="cls-1" d="M97.13,174.64a50.83,50.83,0,0,1-5.84,4.59A50.83,50.83,0,0,0,97.13,174.64Z"/><path class="cls-1" d="M80.21,184.9c-1.58.57-3.19,1.08-4.84,1.5C77,186,78.63,185.47,80.21,184.9Z"/><path class="cls-1" d="M49.63,186.4c-1.65-.42-3.26-.93-4.84-1.5C46.37,185.47,48,186,49.63,186.4Z"/><path class="cls-1" d="M42.45,184q-2.31-1-4.5-2.16Q40.14,183,42.45,184Z"/><path class="cls-1" d="M33.71,179.23l-.44-.32h0Z"/><path class="cls-1" d="M33.69,151.5l-.63-6q-1.29-12.24-2-18.35-1-8.26-1.92-15.16c-.16.15-.28.26-.36.32a6.39,6.39,0,0,1-.75.58,10.07,10.07,0,0,1-2.56,1,9.62,9.62,0,0,1-1.51.32,4.41,4.41,0,0,1-2.17-.38A5.62,5.62,0,0,1,20,112.59,8,8,0,0,1,18.34,110a51.45,51.45,0,0,0,4.42,59.26c.52.64,1.06,1.26,1.62,1.87a51.35,51.35,0,0,0,8.89,7.76l.73-19,0-.56.31-.45c0-.57-.06-1.16-.11-1.76C34.14,156,34,154.09,33.69,151.5Z"/><path class="cls-1" d="M97.48,174.31h0l-.35.33Z"/><path class="cls-1" d="M97.45,98.71q1.27,10.67,2.3,20.23.38,3.65.51,5.51.18,2.7.21,5.91,0,2.43-.06,5.9-.15,8.25-.57,16.59h.21l0,2-.47,17.41c-.67.69-1.35,1.37-2,2q1.63-1.51,3.14-3.16c.56-.61,1.1-1.23,1.62-1.87a51.49,51.49,0,0,0-4.79-70.57Z"/><path d="M98,93.86a16,16,0,0,0,3.67-.91q.93-.35,1.59-.66a7.87,7.87,0,0,0,1.47-.91A9,9,0,0,0,106.11,90a16.17,16.17,0,0,0,1.16-1.64,26.77,26.77,0,0,0,3.94-15.83l.58,0c.34,0,.75-.07,1.24-.08l1.23,0a4.18,4.18,0,0,0,.68-.09,1,1,0,0,0,.56-.34,1.33,1.33,0,0,0,.25-.68q0-.49.06-.75a4,4,0,0,1,.07-.42,2.86,2.86,0,0,0,.08-.42,4.7,4.7,0,0,0,0-.89c0-.5,0-.8,0-.89,0-.28,0-.49,0-.62a3.72,3.72,0,0,0,0-.62l-.12-.6q0-.17-.06-.42a3.36,3.36,0,0,0,0-.44,9.66,9.66,0,0,0-.36-1.51,3.44,3.44,0,0,0-.26-.68,2.39,2.39,0,0,0-.56-.62,1.61,1.61,0,0,0-1-.47,1,1,0,0,0-.38.1,15.15,15.15,0,0,0-3.89-.65l-4.28,0-2.55-.06c-1,0-1.83,0-2.53.06-.46,0-1.16.12-2.07.24s-1.61.19-2.08.23c-.31,0-.92.06-1.83.09h-.14A72.78,72.78,0,0,1,94.05,54c0-.12,0-.24,0-.35.53-.14,1.18-.35,1.94-.63l3.71-1.36c.89-.32,1.56-.58,2-.77a12.71,12.71,0,0,0,1.89-1,12.51,12.51,0,0,0,1.59-1.25c.4-.35.87-.82,1.43-1.42.73-.76,1.32-1.44,1.8-2A16.08,16.08,0,0,0,109.94,43a13.4,13.4,0,0,0,.85-11.09,23,23,0,0,0-1-2.22c-.52-1-.89-1.69-1.13-2.18a11.83,11.83,0,0,1-1.39-4.54,7.29,7.29,0,0,1,2.92-6.09l.65-.47a2.59,2.59,0,0,0,.55-.55,1.36,1.36,0,0,0,.29-.73.92.92,0,0,0-.21-.72,1.16,1.16,0,0,0-.62-.33,3.09,3.09,0,0,0-.74,0,31.44,31.44,0,0,0-4.88.47,18.59,18.59,0,0,0-4.66,1.47,13.51,13.51,0,0,0-2.74,1.76c0-.65.09-1.53.13-2.64a14.73,14.73,0,0,0,0-2.32,14.32,14.32,0,0,0-.42-2,17.75,17.75,0,0,0-.82-2.54,11,11,0,0,0-2.22-3.08A7.18,7.18,0,0,0,91.7,3.2a6.7,6.7,0,0,0-2-.28,11.08,11.08,0,0,0-4.49,1A10.29,10.29,0,0,0,81.89,6.2,13.17,13.17,0,0,0,77,2.59c-.61-.29-1.46-.64-2.54-1-.8-.31-1.36-.3-1.68,0a1,1,0,0,0-.26.81,6.51,6.51,0,0,0,.19.92,11.64,11.64,0,0,1,.44,3.52,24.71,24.71,0,0,1-1.18,7,6.08,6.08,0,0,1-.2.58,1.81,1.81,0,0,1-.31.53l-.16.18A11.69,11.69,0,0,0,69,10.22a1.67,1.67,0,0,0-1.31-.79c-.45,0-.85.37-1.19,1q-.14.24-.87,2.1a6.63,6.63,0,0,1-1.12,1.93,21.33,21.33,0,0,0-1-7.07A21.39,21.39,0,0,0,60.31,1a2.84,2.84,0,0,0-.92-.9A1.35,1.35,0,0,0,58.74,0a.85.85,0,0,0-.58.26A.71.71,0,0,0,58,.54a1,1,0,0,0-.13.16,2,2,0,0,0-.3.77c0,.13-.07.41-.12.83a17.56,17.56,0,0,1-2.73,7.36,28.51,28.51,0,0,1-5.26,6,78.57,78.57,0,0,1-6.33,4.85Q38.22,24,36.66,25.21q-8.13,6.41-11.29,13.9-2.22,5.28-1.06,9.35a3.44,3.44,0,0,0,.52,1.12,2.29,2.29,0,0,0-.27.27A5,5,0,0,0,23.9,51c-.18.42-.38.86-.61,1.33-.42,1-.66,1.49-.71,1.6a35.74,35.74,0,0,0-2.11,7.29c-.08.45-.17,1-.25,1.58A30.92,30.92,0,0,0,20,65.89c0,.72,0,1.75,0,3.08a6.68,6.68,0,0,0-1.4-.13,6.57,6.57,0,0,0-1.58.31,13.13,13.13,0,0,0-1.5.57c-.71.29-1.27.55-1.68.76a8.37,8.37,0,0,0-1.52,1A8.83,8.83,0,0,0,11,73.09,21.19,21.19,0,0,0,9.9,74.92c-.62,1.17-1.12,2.18-1.48,3a18.83,18.83,0,0,0-1,3.17A17.43,17.43,0,0,0,7,84.32,20.68,20.68,0,0,0,11,96.84a23.92,23.92,0,0,0,2,2.39c.5.55,1.22,1.29,2.18,2.24a2,2,0,0,0,.64.46,8.39,8.39,0,0,1,.82,1.78,1.72,1.72,0,0,1,.07.21,55.47,55.47,0,1,0,81.41,75.17A55.43,55.43,0,0,0,98,93.86Zm7.61-6A8.7,8.7,0,0,1,103.66,90a6.45,6.45,0,0,1-1.23.74,13.86,13.86,0,0,1-1.33.54,16.18,16.18,0,0,1-3.27.85,9.2,9.2,0,0,1-1.17.08,11.49,11.49,0,0,1-2-.18c-.31-.06-.62-.14-.93-.22A11.53,11.53,0,0,1,90,90a13.19,13.19,0,0,1-2.92-3A14.89,14.89,0,0,1,85.32,84l.22,0,.34-.06a4.26,4.26,0,0,1,.66-.06l1,0a1.74,1.74,0,0,0,.51-.07,13.19,13.19,0,0,0,1.29,1.84A7.84,7.84,0,0,0,91,87.18a5,5,0,0,0,1.34.62,14.07,14.07,0,0,0,1.46.34l.36.06a18.83,18.83,0,0,0,2,.18,9.08,9.08,0,0,0,5.34-1.33,9.17,9.17,0,0,0,3.18-4c.06-.14.12-.27.17-.41a2.12,2.12,0,0,0,.29-.11l.5-.21a4.08,4.08,0,0,1,.66-.15L107,82a12.47,12.47,0,0,0,1.46-.34A23.35,23.35,0,0,1,105.57,87.83ZM82.84,85.2a5.86,5.86,0,0,0,.54-.7,2.43,2.43,0,0,1,.22-.29,18.06,18.06,0,0,0,1.66,3.21A15.42,15.42,0,0,0,88.51,91,14.39,14.39,0,0,0,90,92.08l-.6-.17a12.64,12.64,0,0,1-2-.72A7.81,7.81,0,0,1,85.72,90a16.88,16.88,0,0,1-1.48-1.52,8.59,8.59,0,0,1-1-1.28,6.61,6.61,0,0,1-.56-1.25l-.14-.48A1.62,1.62,0,0,0,82.84,85.2Zm-.31-1.8-.36.46A51.74,51.74,0,0,1,81,76.4c0-.26,0-.46-.07-.58a1.33,1.33,0,0,0-.22-.51l0,0v0c-.15-.25-.48-.33-1-.26a10.72,10.72,0,0,0-1.18.18,4.24,4.24,0,0,0-.87.31l.08-.79L78,74.6l.53-.22A4.67,4.67,0,0,1,79.89,74a2.13,2.13,0,0,1,.89,0,2.54,2.54,0,0,1,.37.17,2.93,2.93,0,0,0,.38.16h0c.15.93.3,1.91.45,3,.22,1.36.39,2.31.49,2.85a23.54,23.54,0,0,0,.61,2.5l-.18.18Zm4.64-10.59a1.83,1.83,0,0,0-.09-.4l.13-.09a7,7,0,0,1,1.63-.87c.22-.08.65-.22,1.29-.41s1.49-.41,2.19-.56,1.31-.3,1.92-.41,1.29-.22,1.87-.28c1-.1,2.44-.14,4.3-.13.47,0,.83,0,1.06,0a7.59,7.59,0,0,1,1.06.12,11.87,11.87,0,0,1,1.15.3c.52.16.9.26,1.15.31a1.82,1.82,0,0,1,.63.23l.11.1a34.67,34.67,0,0,1-1.35,9.6,15.85,15.85,0,0,1-1.07,2.8,7.21,7.21,0,0,1-1.8,2.3,6.88,6.88,0,0,1-3.82,1.47A10.58,10.58,0,0,1,96,87a17.68,17.68,0,0,1-2-.25l-.57-.11q-.63-.15-1-.27a3.38,3.38,0,0,1-.91-.47,4,4,0,0,1-.72-.67c-.16-.18-.35-.45-.59-.79-.34-.49-.61-.88-.79-1.18A9.63,9.63,0,0,1,88.72,82a9,9,0,0,1-.53-1.78c-.08-.42-.18-1-.29-1.86Zm6.67-9.23.37,0,1.92-.12c.44,0,1.07-.1,1.89-.19s1.49-.17,1.89-.2c.84-.06,2-.09,3.43-.1,2,0,3.57,0,4.59,0a28.51,28.51,0,0,1,4.53.57c.25,0,.44.09.57.1h.36l.17,0a6.21,6.21,0,0,1,.34,1c0,.2.12.56.21,1.07l.14.76a9,9,0,0,1,.16,1.82q0,.28-.15,1.11a4.82,4.82,0,0,0-.1,1.1c-.75,0-1.49,0-2.21.1a3.55,3.55,0,0,0-1,.19,1.38,1.38,0,0,0-.36.26l-.15,0a.72.72,0,0,0-.58.16,1,1,0,0,0-.33.66,3.68,3.68,0,0,0,0,.78,23.73,23.73,0,0,1-.58,7.41h0l-.47.11a13.7,13.7,0,0,1-1.5.37l-1.35.25s-.07,0-.09,0l.09-.36c.17-.62.36-1.47.59-2.53s.37-1.73.46-2.3a17.18,17.18,0,0,0,.21-2.33v-1a6.61,6.61,0,0,1,.06-1c0-.32.09-.56.1-.71a1.54,1.54,0,0,0-.06-.7.85.85,0,0,0-.48-.52.9.9,0,0,0-.24-.07A4.36,4.36,0,0,0,105,69l-1.16-.32c-.46-.12-.85-.21-1.16-.27a10.07,10.07,0,0,0-1.33-.14l-1.36,0a40.71,40.71,0,0,0-4.27.16c-.5,0-1,.13-1.63.24s-1.22.23-1.9.4-1.3.32-2,.51-1.15.33-1.53.47a12.47,12.47,0,0,0-2.47,1.25,2.41,2.41,0,0,0-.56.51.66.66,0,0,0,0,.71.58.58,0,0,0,.26.23.81.81,0,0,0,0,.16,4,4,0,0,0,0,.51l.6,4.51q.24,1.83.45,2.76a11.82,11.82,0,0,0,.53,1.79h-.16l-.83,0H84.77a28.6,28.6,0,0,1-.85-3.62c-.3-2.06-.54-3.61-.7-4.64,0-.23-.08-.4-.11-.51a1.85,1.85,0,0,0-.2-.47,1,1,0,0,0-.4-.33.9.9,0,0,0-.27-.07l-.43-.27a2.81,2.81,0,0,0-.46-.23,3.71,3.71,0,0,0-1.81,0c-.49.08-.88.16-1.18.24a5.14,5.14,0,0,0-1.11.42,1.72,1.72,0,0,0-.46.34h0a1,1,0,0,0-.47.37A2.81,2.81,0,0,0,76,74.85c-.19,2.19-.42,4.18-.67,6,0,.31-.08.61-.12.89a1,1,0,0,0-.38-.11,2,2,0,0,0-.47,0l-.47.09c-.2,0-.46,0-.8,0h-.23c0-.18.07-.37.11-.56.09-.49.23-1.28.41-2.36.12-.76.2-1.39.25-1.91s.06-1.16,0-1.85c0-.36,0-1,0-1.85a1.22,1.22,0,0,0-.15-.62,2.14,2.14,0,0,0-.4-1.3,2,2,0,0,0-1-.61,6.55,6.55,0,0,0-1.2-.23c-2.76-.28-5.25-.45-7.45-.49a53.46,53.46,0,0,0-7.45.37c-.9.12-1.65.23-2.25.34a9.52,9.52,0,0,0-1.79.48,3.3,3.3,0,0,0-1.44,1,1.41,1.41,0,0,0-.33.77.48.48,0,0,0-.12.16.76.76,0,0,0,0,.38s0,.16.08.38a4.3,4.3,0,0,1,.11.84c0,.54,0,.82,0,.85,0,.28.09.67.18,1.15l.44,2.55,0,.3a10.47,10.47,0,0,0,.28,1.59,4.79,4.79,0,0,0,.3.74c.07.2.15.41.24.61a22.82,22.82,0,0,0-2.35.26h-.09l0-.41q-.2-1.8-.42-3.6a20.31,20.31,0,0,0-.42-2.53c-.06-.3-.11-.52-.14-.67a4.29,4.29,0,0,1-.11-.68c0-.16,0-.28,0-.37a1.6,1.6,0,0,0-.08-.36.77.77,0,0,0-.45-.43.84.84,0,0,0-.58,0l-.19,0a6.68,6.68,0,0,0-1.75-.23l-.4,0-.2,0a1,1,0,0,1-.52-.24,1.57,1.57,0,0,1-.31-.72c-.14-.71-.23-1.24-.28-1.6a21.66,21.66,0,0,1-.14-2.34,16,16,0,0,1,.06-1.8c.07-.64.13-1.12.16-1.44a8.51,8.51,0,0,0,0-1l.28-.07.85-.18a48.3,48.3,0,0,1,9.86-.87q4.17,0,10.81.65a47.23,47.23,0,0,1,4.92.7,15.42,15.42,0,0,1,4.6,1.68l.37.2a.66.66,0,0,0,.46.29,1,1,0,0,0,.33,0,.88.88,0,0,0,.47-.11.61.61,0,0,0,.37-.4s0,0,0,0A4,4,0,0,1,78,65.61a4.24,4.24,0,0,1,1.34-.12,8,8,0,0,1,2.6.7,4.28,4.28,0,0,0,.85.28l.08,0,.1,0a1,1,0,0,0,.5.09A1.66,1.66,0,0,0,84,66.5l.46-.21A25.32,25.32,0,0,1,92,63.74l.35,0C92.7,63.65,93.21,63.61,93.84,63.58ZM38.21,108.89c-.09-.51-.29-1.54-.62-3.07s-.63-3.26-1-5.47c-.56-3.45-.85-5.28-.89-5.49A56.75,56.75,0,0,0,33,84.17l-.34-.85a1.57,1.57,0,0,0,.58-.39,9.69,9.69,0,0,1,.84-.7L35,81.6l4.46-3.14c.6-.42,1-.7,1.28-.85l.36-.2a1.7,1.7,0,0,0,.31-.26,1,1,0,0,0,.2-.34l1.55-.09v1.7q.18,17,1.54,34.38a1.1,1.1,0,0,0,0,.18l-6.33-1A13,13,0,0,0,38.21,108.89Zm.48-36.36c0,.11.05.27.1.47s.05.34.06.47a4.86,4.86,0,0,1,0,.51,2.66,2.66,0,0,0,0,.52.39.39,0,0,0,0,.14,1.85,1.85,0,0,0-.34.21l-.45.41a14,14,0,0,1-2.17,1.51,17.53,17.53,0,0,0-2.23,1.46l-.78.71q-.48.45-.78.69l-.24-.54a3.59,3.59,0,0,0-.29-.88,3,3,0,0,0-.51-.69,20.79,20.79,0,0,0-1.31-2,4.47,4.47,0,0,1,.78-.9,12.18,12.18,0,0,1,.95-.78c1-.74,1.61-1.2,1.82-1.37a32,32,0,0,0,2.83-2.52c.43-.43.76-.75,1-1a9.21,9.21,0,0,1,1-.89l.66-.48h0c0,.16,0,.27,0,.31s0,.44-.07.73-.06.4-.12.72A14.32,14.32,0,0,0,38.6,71,8.91,8.91,0,0,0,38.69,72.53Zm1.23-2.34a3,3,0,0,1,0-.63,3.32,3.32,0,0,1,.07-.39,3.57,3.57,0,0,0,.09-.39c0-.11,0-.52,0-1.23a2.23,2.23,0,0,1,.25-1.15,2.7,2.7,0,0,1,.57-.6q.52-.47,1-.81s0,0,0,0a4.76,4.76,0,0,1-.12.66,8.22,8.22,0,0,0-.11,1.42v1.8c0,.68,0,1.27.08,1.79,0,.2,0,.47.07.83a14.13,14.13,0,0,0,.4,1.71c.08.26.16.47.23.64a1.56,1.56,0,0,0-.52.2l-.52.29a2.47,2.47,0,0,0-.45.37.91.91,0,0,1-.16.17.21.21,0,0,1-.2.06l-.1,0,0-.15-.17-.41a1.36,1.36,0,0,1-.12-.42,1.44,1.44,0,0,1,0-.38c0-.22,0-.35,0-.4a3.51,3.51,0,0,0-.11-.52,3.74,3.74,0,0,1-.1-.53,2.65,2.65,0,0,1,0-.65c0-.28,0-.5,0-.64S39.94,70.56,39.92,70.19Zm.1,6.22-.06,0c-1.19.81-2.55,1.77-4.1,2.86L33.38,81a2,2,0,0,1-.61.33,1.22,1.22,0,0,0-.08-.3l0,0,.1-.08.39-.4a17.18,17.18,0,0,1,3.1-2.41q2.37-1.51,3.18-2.16a.54.54,0,0,0,.19.18h0a.64.64,0,0,0,.19.18A.54.54,0,0,0,40,76.41Zm4.13-1a6,6,0,0,0-.69,0h-1l.24-.14a2.77,2.77,0,0,0,.39-.24l.12-.13a.08.08,0,0,0,0,0,2.56,2.56,0,0,0,1,.29l.52,0h.15c.3,0,.52,0,.68,0l.89.13a1.6,1.6,0,0,0,.05.21l.22.66a10.06,10.06,0,0,1,.35,1.58c0,.35.12.88.19,1.6l.16,1.66c.09.92.17,1.62.23,2.1l0,.24a0,0,0,0,0,0,0,2,2,0,0,0-.56.51l-.22.3c-.33-1.49-.56-2.53-.68-3.14-.23-1.19-.39-2.26-.49-3.2a5.76,5.76,0,0,0-.22-1.32,1.68,1.68,0,0,0-.73-1l0,0A1.76,1.76,0,0,0,44.15,75.38Zm3.34,10.5a2.33,2.33,0,0,0,.33-.36,1.28,1.28,0,0,0,.21-.37.13.13,0,0,0,0,.06A16,16,0,0,0,50,90,9.73,9.73,0,0,0,51.1,91.5s0,0,0,0a13,13,0,0,1-1.34-.91,5.42,5.42,0,0,1-1.12-1.13,5.36,5.36,0,0,1-.78-1.57,15.5,15.5,0,0,1-.46-1.72s0-.07,0-.12S47.44,85.93,47.49,85.88Zm3.59,2.6c-.23-.42-.53-1-.88-1.81a10.43,10.43,0,0,1-.54-1.41,6.55,6.55,0,0,1-.17-1l.08,0A6.73,6.73,0,0,1,50.75,84c.6,0,1-.09,1.18-.12a1.85,1.85,0,0,0,.45-.11A13,13,0,0,0,53.14,85a7.9,7.9,0,0,0,1.81,2l.71.45.94.56c.45.27.78.46,1,.57l.18.09.29.17a3,3,0,0,0,.52.2l.55.15a7.36,7.36,0,0,1,.88.29c.3,0,.69,0,1.17,0l3.29-.07a7.14,7.14,0,0,0,1.11-.07A6.58,6.58,0,0,0,66.77,89a20.78,20.78,0,0,0,3-1.56,9,9,0,0,0,.9-1.17c.12-.13.23-.26.35-.41a9.38,9.38,0,0,0,1.46-2.76h.63l.7,0,.7,0a3,3,0,0,0,.49-.14c-.06.37-.12.7-.18,1a16.36,16.36,0,0,1-.92,3,10.89,10.89,0,0,1-1.6,2.7,7.6,7.6,0,0,1-2.37,2,9.16,9.16,0,0,1-2,.74,18.23,18.23,0,0,1-2.12.37c-1.22.16-2.85.29-4.88.41q-.89.06-1.38.06c-.3,0-.59,0-.85,0a1,1,0,0,0-.07-.25H58.5c-.16,0-.42-.06-.78-.14l-.09,0a8.61,8.61,0,0,1-1.55-.34A9.41,9.41,0,0,1,55,92a4.29,4.29,0,0,1-1.3-.51,5.74,5.74,0,0,1-1.53-1.31A9.23,9.23,0,0,1,51.08,88.48Zm.64-15.43a2.35,2.35,0,0,1,1-.62,7.07,7.07,0,0,1,1.38-.34c1.57-.24,2.66-.4,3.27-.46a41.06,41.06,0,0,1,5.14-.24q2.1,0,5.16.21c1.6.1,2.83.22,3.71.36a1.17,1.17,0,0,1,.63.25.79.79,0,0,1,.21.46c0,.07,0,.25,0,.53a1.29,1.29,0,0,0,.18.69,18.6,18.6,0,0,1-.19,4.21l-.3,1.72c0,.27-.09.53-.14.77a16.63,16.63,0,0,1-.54,2.12,9,9,0,0,1-.92,2L70,85l0,0a1.66,1.66,0,0,0-.31.33s0,0,0,0a2.29,2.29,0,0,1-.48.33L69,85.8l-.28.36a5,5,0,0,1-.71.59l-.79.49q-.57.33-.87.48a5.65,5.65,0,0,1-.91.39,7.49,7.49,0,0,1-1.29.24l-.06-.11,0,0h0a8.08,8.08,0,0,1-2,0l-.44,0A5.26,5.26,0,0,1,59.37,88a2.17,2.17,0,0,1-.48-.2l-.34-.14a5.28,5.28,0,0,1-.76-.47,0,0,0,0,0,0,0,6.46,6.46,0,0,1-1-.78c-.19-.14-.38-.3-.57-.46l-.32-.28-.22-.16a4,4,0,0,1-.66-.6,5.45,5.45,0,0,1-.52-.77,13.54,13.54,0,0,1-1.37-2.17c-.17-.36-.32-.7-.44-1s-.25-1.06-.4-1.85l-.11-.67c0-.05,0-.1,0-.14L52,77.57a31.54,31.54,0,0,1-.45-3.16,1.82,1.82,0,0,1,.25-1.25A.44.44,0,0,0,51.72,73.05ZM88.59,36.77A18,18,0,0,0,87,33.12a5.2,5.2,0,0,1,.51.55A8.15,8.15,0,0,1,88.35,35c.18.34.4.81.67,1.43.56,1.23,1,2.17,1.19,2.83a11.88,11.88,0,0,1,.67,3,14.63,14.63,0,0,1-.25,3.73A13.49,13.49,0,0,1,90,48.27a9,9,0,0,1-3.15,3.87,13.12,13.12,0,0,0,1.5-2.55,15.62,15.62,0,0,0,1.15-5.68A20.94,20.94,0,0,0,88.59,36.77Zm-.23-19.19A4,4,0,0,0,87.85,16a2.75,2.75,0,0,0-.67-.77,1.77,1.77,0,0,0-.77-.31l.35-.29A3.7,3.7,0,0,1,88,14l.36-.09a.87.87,0,0,0,.32-.15l.08-.08a.9.9,0,0,0,.24-.56,1,1,0,0,0-.19-.69,1.2,1.2,0,0,0-.58-.42,1.6,1.6,0,0,0-.72-.1,3.14,3.14,0,0,0-1.37.48,8.79,8.79,0,0,0-3.77,4.35,5.93,5.93,0,0,1,0-2.06,5.69,5.69,0,0,1,.87-2.29,5.82,5.82,0,0,1,4-2.59,4.63,4.63,0,0,1,2.16.23,3.37,3.37,0,0,1,1.69,1.26,4.75,4.75,0,0,1,.67,1.9,10.66,10.66,0,0,1,0,3.19A12.89,12.89,0,0,1,91,19.18q-.42,1-1.26,2.7c-.67,1.32-1.11,2.21-1.32,2.66a15.77,15.77,0,0,0-1,2.79,9.26,9.26,0,0,0-.26,3,8,8,0,0,0,.26,1.44,10.83,10.83,0,0,0-1.53-1.13A22.6,22.6,0,0,0,82,28.73l-.6-.23a14.81,14.81,0,0,0,3-2.5,19.16,19.16,0,0,0,2.66-3.64,9.94,9.94,0,0,0,1.23-3.1A5.3,5.3,0,0,0,88.36,17.58Zm.44,37a29.37,29.37,0,0,0,3.12-.35c0,.07,0,.15,0,.22-.07,2.41-.08,4.93,0,7.59a18.81,18.81,0,0,0-3,.68c-.76.22-1.81.58-3.13,1.07l-1.26.48a8.69,8.69,0,0,0-1.19.62l0,0-.1-.06a9.34,9.34,0,0,0-4.37-1,5.2,5.2,0,0,0-2.85.75,4.06,4.06,0,0,0-.74-.46,9.54,9.54,0,0,0-1.91-.65q-1.55-.36-4-.75A83.59,83.59,0,0,0,47.4,61.8c-1,.11-1.94.24-2.76.38l-.06-9q6.47.76,11.73,1.13,6.63.47,14.39.55,5.67,0,13.06-.1l.29-.07a5.44,5.44,0,0,1,.87,0l.39,0,0,0C86.84,54.65,88,54.6,88.8,54.54ZM103.2,45a13.12,13.12,0,0,1-1.07,3c-.13.23-.21.4-.26.51a.94.94,0,0,0,0,.09q-.59.32-1.29.63c-.48.2-1.19.48-2.12.83-1.24.47-2.18.8-2.81,1a24.54,24.54,0,0,1-2.56.7c.49-.41,1-.88,1.61-1.42.84-.77,1.52-1.42,2-2a18.31,18.31,0,0,0,1.8-2.15,11.13,11.13,0,0,0,1.77-3.69c.21-.49.36-.92.48-1.28,0-.19.1-.34.14-.46a1.18,1.18,0,0,0,.14-.36c0-.07,0-.22.09-.44.15-1.07.29-2.46.42-4.16.16-2.12.26-3.46.31-4a7.33,7.33,0,0,1,1,2.13A20.68,20.68,0,0,1,103.2,45Zm4.57-14.81A20.4,20.4,0,0,1,109,32.91a11.32,11.32,0,0,1-.81,9.13,14.42,14.42,0,0,1-1.29,1.88c-.41.51-.92,1.08-1.53,1.72s-1,1-1.47,1.41a16,16,0,0,0,.59-1.78,17.39,17.39,0,0,0,.44-2.86c.05-.77.08-1.73.07-2.9a17.85,17.85,0,0,0-.1-2.19,19,19,0,0,0-.35-1.88,22.39,22.39,0,0,0-.71-2.55,8.74,8.74,0,0,0-1.23-2.32,1.56,1.56,0,0,0-.51-.47l-.08,0a23.58,23.58,0,0,1,1.67-6.5,17.47,17.47,0,0,1,1.83-3.14,11.55,11.55,0,0,0-.18,1.2,12.1,12.1,0,0,0,1,5.82C106.62,27.92,107.07,28.82,107.77,30.15Zm-10.15-7q.94-3.42,5.34-6a16.9,16.9,0,0,1,4.58-.81,23.44,23.44,0,0,0-2.69,2.88,18.7,18.7,0,0,0-2.54,4.35,28.33,28.33,0,0,0-1.74,8.06c-.09.93-.2,2.32-.34,4.18,0,.6-.1,1.16-.15,1.69A4,4,0,0,0,100,37c-.57-1.72-1-3-1.24-3.88s-.53-2-.84-3.58a27.69,27.69,0,0,1-.51-3.24A9.36,9.36,0,0,1,97.62,23.12Zm-1.55,3.37c.05.63.19,1.5.4,2.61a51.06,51.06,0,0,0,1.31,5.41c.21.66.53,1.66,1,3a10.08,10.08,0,0,1,.44,3.07,8.33,8.33,0,0,1-.25,1.68,2.16,2.16,0,0,0-.19.53.59.59,0,0,0,0,.13,10.19,10.19,0,0,1-1.2,2.34,15.89,15.89,0,0,1-1.56,2Q95.28,48,94.2,49l-.37.35,0-.11a14.9,14.9,0,0,0,1.19-3.56,21.39,21.39,0,0,0,.3-2.82A64.32,64.32,0,0,0,95.3,35c-.06-.66-.09-1.16-.12-1.49,0-.57-.05-1.07-.05-1.48a17.16,17.16,0,0,1,.43-3.91,16.76,16.76,0,0,1,.5-1.75A.19.19,0,0,0,96.07,26.49Zm-14-17.22a7.74,7.74,0,0,1,3.12-3.12A8.94,8.94,0,0,1,89.47,5a4.68,4.68,0,0,1,2.09.38,4.09,4.09,0,0,1,1,.66c.18.16.45.44.82.84A10.67,10.67,0,0,1,94.58,8.4a8.94,8.94,0,0,1,.91,2.44,20.21,20.21,0,0,1,0,9.28c0,.12-.06.23-.08.34A9.26,9.26,0,0,0,94.24,23,19.53,19.53,0,0,0,93.85,25c-.14.87-.27,1.51-.38,1.93a6.47,6.47,0,0,1-.77,1.85,3.74,3.74,0,0,1-1.42,1.33c-.33.15-.57.27-.73.36A1.22,1.22,0,0,0,90,31a.87.87,0,0,0,.21,1,1.23,1.23,0,0,0,1,.46,2.94,2.94,0,0,0,1.89-1.09c.28-.31.55-.62.79-.94l0,.52c0,.67,0,1.51,0,2.52s.14,2.57.25,4.62a40.58,40.58,0,0,1,0,4.62,16.06,16.06,0,0,1-2.91,8.65l-.18.27a9.33,9.33,0,0,1-1.29.61l-.22.09-.83.06.42-.41a9.72,9.72,0,0,0,2.5-4,15.91,15.91,0,0,0,.5-2.9,15.4,15.4,0,0,0,.12-2.73,12.26,12.26,0,0,0-.63-3c-.23-.68-.61-1.65-1.15-2.9l-.31-.71a1,1,0,0,0,0-.24,2.4,2.4,0,0,0-.19-.55,13.22,13.22,0,0,1-.64-1.8,2.79,2.79,0,0,0-.24-.64l0-.12a6.35,6.35,0,0,1-.55-2.73,9.47,9.47,0,0,1,.46-2.8A19.12,19.12,0,0,1,90,24.16l1.3-2.52a25.92,25.92,0,0,0,1.18-2.58,11.37,11.37,0,0,0,.7-2.72,13.7,13.7,0,0,0,0-2.7,10.77,10.77,0,0,0-.21-1.43,5.41,5.41,0,0,0-.49-1.34,4.6,4.6,0,0,0-2-1.88,5.64,5.64,0,0,0-2.71-.61,6.48,6.48,0,0,0-3,.81,7,7,0,0,0-2.35,2.05,7.38,7.38,0,0,0-1.18,2.48c0-.2,0-.4,0-.6A7.42,7.42,0,0,1,82.05,9.27Zm-1,10.05q0-.48,0-.63c.28.46.63,1,1,1.55a4.79,4.79,0,0,0,.5.64,1.83,1.83,0,0,0,.62.48,1.24,1.24,0,0,0,.78.1l.19-.05.14-.15a3.25,3.25,0,0,0,.23-.28,1.4,1.4,0,0,0,.15-.3c0-.15,0-.32,0-.51a8.71,8.71,0,0,1,0-1c0-.09,0-.2,0-.3a4.45,4.45,0,0,1,0-.64,6.4,6.4,0,0,1,.16-1,1,1,0,0,0,.38-.38,1.76,1.76,0,0,1,.38-.45.68.68,0,0,1,.49-.11,1.13,1.13,0,0,1,.49.21,1.63,1.63,0,0,1,.49.92,5.36,5.36,0,0,1-.6,3.37,15.44,15.44,0,0,1-3.3,4.7,10.82,10.82,0,0,1-2.7,2,2.81,2.81,0,0,0-.73.48h0a10,10,0,0,0-1.83-.31l.16-.22c.14-.19.34-.5.61-.92a23.92,23.92,0,0,0,1.71-3.07A8.49,8.49,0,0,0,81.11,20C81.11,19.83,81.1,19.6,81.09,19.32Zm-3-13.84a10.64,10.64,0,0,1,2.47,2.45h0a8.55,8.55,0,0,0-.62,1.25,15.33,15.33,0,0,0-1.06-1.74c-.39-.56-1-1.33-1.86-2.33l-.47-.55A10.1,10.1,0,0,1,78.09,5.48ZM71.55,24.53c0-.23.08-.48.11-.75,0-.08,0-.16,0-.23s.07-.29.1-.45a14.94,14.94,0,0,0,.12-2.38c0-1.16-.07-2.22-.17-3.17A3.09,3.09,0,0,0,72,17.3a7.07,7.07,0,0,0,1.67-2.44,8.74,8.74,0,0,0,.39-1.17A25.46,25.46,0,0,0,75,9.15a28.52,28.52,0,0,1,.51,4.71,18.3,18.3,0,0,1-.11,2.59,15.33,15.33,0,0,1-.88,3.41c-.31.85-.78,1.94-1.42,3.26a11.82,11.82,0,0,1-.9,1.62,4.22,4.22,0,0,1-.87.91Zm-.83,3.24a1.05,1.05,0,0,0,.22-.4l.12,0a4.37,4.37,0,0,0,2.08-1.75,16.5,16.5,0,0,0,1.42-2.44c.35-.74.71-1.62,1.07-2.63A18.52,18.52,0,0,0,76.4,18a17.19,17.19,0,0,0,.36-5,38.46,38.46,0,0,0-.69-5c-.21-1.07-.43-2-.65-2.76a31.38,31.38,0,0,1,2.7,3.35l.42.63a6.87,6.87,0,0,1,.76,2.13,8.83,8.83,0,0,0,.2,3.93c0,.21.12.42.19.63a3.1,3.1,0,0,0,0,.49c0,.41.07,1.1.09,2.08A15.68,15.68,0,0,1,79.69,21a10,10,0,0,1-1,2.82q-.47.9-1.56,2.58a2.63,2.63,0,0,1-.64.76c-.25.16-.44.28-.56.37a.88.88,0,0,0-.28.3c-.36.08-.74.18-1.12.3a9.33,9.33,0,0,0-4,2.44,6.27,6.27,0,0,0-1.27,2,5.2,5.2,0,0,0-.37,2.31,1.34,1.34,0,0,0,.13.54.54.54,0,0,0,.39.31.44.44,0,0,0,.34-.09.7.7,0,0,0,.24-.3,1.17,1.17,0,0,0,.1-.37,3,3,0,0,0,0-.37,5.63,5.63,0,0,1,1.07-2.72A6.53,6.53,0,0,1,73.42,30a7.81,7.81,0,0,1,2.81-.85,10,10,0,0,1,3,.11,15.09,15.09,0,0,1,4,1.42,3.22,3.22,0,0,0,.32.31,13.71,13.71,0,0,1,3.55,5.46A19.34,19.34,0,0,1,88.23,43a16.06,16.06,0,0,1-.68,5.16,9.52,9.52,0,0,1-2.78,4.34,1.17,1.17,0,0,0-.16.15l-2.8.11a14.12,14.12,0,0,0,2.12-2,10.07,10.07,0,0,0,2.36-4.91,9.77,9.77,0,0,0-.51-5,15.58,15.58,0,0,0-2.53-4.44,8,8,0,0,0-1.31-1.34,5.58,5.58,0,0,0-1.31-.71,13.62,13.62,0,0,0-1.44-.47,15.89,15.89,0,0,0-2.08-.47,7.34,7.34,0,0,0-2.13,0,8,8,0,0,0-1.7.48l-.37.15.46.29,1.32.81.57.36a6.21,6.21,0,0,1,.54.41,12.67,12.67,0,0,1,1,1.07l.53.55,0,0,.22.18a4.48,4.48,0,0,1,1.25,1.84,10.39,10.39,0,0,1,.38,1.42,7.51,7.51,0,0,1,.15,1.37,4.13,4.13,0,0,1-.14,1c0,.21-.15.53-.29,1-.07.24-.12.41-.14.52a1.31,1.31,0,0,0,0,.52.95.95,0,0,0,1.28.62,1.06,1.06,0,0,0,.44-.43,4.58,4.58,0,0,0,.27-.6q.27-.74.39-1.2a5.35,5.35,0,0,0,.19-1.24,9.1,9.1,0,0,0-.18-1.66c-.1-.56-.19-1-.27-1.33a6,6,0,0,0-.48-1.27,8,8,0,0,0-.76-1.1,6.78,6.78,0,0,0-1-1.12,2.75,2.75,0,0,0-.37-.28l.51.14a7.16,7.16,0,0,1,1.79.78,7,7,0,0,1,1.66,1.74A12.35,12.35,0,0,1,84,41.87a7.78,7.78,0,0,1,.24,3.86,8.13,8.13,0,0,1-2,3.84,14.24,14.24,0,0,1-3.51,2.75,6,6,0,0,0-.76.49q-3.34.06-6.8,0A10.5,10.5,0,0,0,74,50.31a18,18,0,0,0,1.29-2.22,9.67,9.67,0,0,0,.54-1.25A4.91,4.91,0,0,0,76,45.05a4,4,0,0,0-.33-1.32,2.09,2.09,0,0,0-.86-1A1.74,1.74,0,0,0,74,42.5a2.24,2.24,0,0,0-.92.14,3.67,3.67,0,0,0-1.52,1A1.72,1.72,0,0,0,71,44.77a.75.75,0,0,0,.25.55.53.53,0,0,0,.54.17.77.77,0,0,0,.37-.31c.07-.1.15-.24.26-.44a2,2,0,0,1,.95-.8,1,1,0,0,1,.77,0c.33.14.53.51.61,1.11a3.55,3.55,0,0,1-.09,1.5,4.76,4.76,0,0,1-.27.6l-.33.57q-.09.16-.36.75a6.67,6.67,0,0,1-.38.73,5.62,5.62,0,0,1-1,1.16,11.64,11.64,0,0,1-3.84,2.45l-2.09-.06v-.09a8.21,8.21,0,0,1,.81-3,16.38,16.38,0,0,1,1.66-2.76c.87-1.14,1.52-2,1.94-2.56a18.76,18.76,0,0,0,1.69-2.72,5.31,5.31,0,0,0,.45-1.3,1.47,1.47,0,0,0,0-.67.64.64,0,0,0-.48-.45.49.49,0,0,0-.38.08.81.81,0,0,0-.29.29,1.71,1.71,0,0,0-.17.38c0,.08-.06.22-.1.4a6.8,6.8,0,0,1-.73,1.67,18,18,0,0,1-1,1.52l-1.59,2.07c-.6.8-1.08,1.52-1.46,2.14A10.83,10.83,0,0,0,65,52.54v.12l-2.86-.13a9.69,9.69,0,0,1,1.14-3.69,19.66,19.66,0,0,1,2.44-3.46c.61-.71,1.54-1.76,2.79-3.16a19.3,19.3,0,0,0,2.43-3.41,7.64,7.64,0,0,0,.89-2.55,1.6,1.6,0,0,0-.1-.91.7.7,0,0,0-.34-.32A.49.49,0,0,0,71,35a.67.67,0,0,0-.34.42,3,3,0,0,0-.11.59,6.26,6.26,0,0,1-.93,2.6,22.87,22.87,0,0,1-1.7,2.28q-1.87,2.28-3,3.52c-.75.84-1.25,1.42-1.49,1.75s-.53.81-.94,1.53a16.79,16.79,0,0,0-1.22,2.62,6.57,6.57,0,0,0-.39,2.14l-1.22-.07-2-.13a9.27,9.27,0,0,1-.25-2.06,12.17,12.17,0,0,1,2.12-6.65,26.07,26.07,0,0,1,2.11-2.83c.28-.34,1.06-1.23,2.34-2.66,1-1.16,1.86-2.14,2.51-2.95A31.85,31.85,0,0,0,68.65,32a20.21,20.21,0,0,0,1.93-4.07A.75.75,0,0,0,70.72,27.77Zm-1.46-8.55a16.18,16.18,0,0,0,.38-2.5l.12.71a16.6,16.6,0,0,1-.08,5.67,3.45,3.45,0,0,0-.08.77,1.75,1.75,0,0,0,0,.24c-.07,1-.18,2-.32,2.94a1.89,1.89,0,0,0,0,.47,18.94,18.94,0,0,1-1.66,3.57,27.2,27.2,0,0,1-2,2.95c-.62.81-1.39,1.72-2.31,2.75-1.55,1.76-2.38,2.7-2.49,2.84a29.14,29.14,0,0,0-2.28,3,13.47,13.47,0,0,0-2.46,7,13.26,13.26,0,0,0,.09,1.71c0,.21.05.46.09.77q-5-.37-10.39-.95A6,6,0,0,1,46,49.7a7.53,7.53,0,0,1,.74-1.94,11.9,11.9,0,0,1,2.66-3.15c.32-.29.75-.63,1.26-1l1.28-1c.8-.64,1.65-1.38,2.56-2.21q1.83-1.66,6-5.59c.73-.68,1.3-1.23,1.71-1.64.61-.62,1.13-1.2,1.58-1.74a22.27,22.27,0,0,0,2.75-4.46A43.08,43.08,0,0,0,68.47,22C68.81,20.93,69.08,20,69.26,19.22Zm-1.9-1.32a26,26,0,0,0,1-3.94,20.15,20.15,0,0,1-.75,6.39c-.14.51-.32,1.09-.55,1.72-.11.31-.32.87-.63,1.69-.4,1-.7,1.79-.92,2.28a18.94,18.94,0,0,1-1.1,2.21,22.49,22.49,0,0,1-2.67,3.44c-.75.81-1.62,1.69-2.62,2.65-.56.55-1.47,1.4-2.73,2.56-2,1.81-3.49,3.15-4.52,4-2.22,1.82-3.53,2.92-3.94,3.32a11.5,11.5,0,0,0-2.88,4.08,7.69,7.69,0,0,0-.54,2.75l-2.85-.33a3.86,3.86,0,0,1,0-1.7,10,10,0,0,1,.56-1.87,11.87,11.87,0,0,1,1.23-2.43,9,9,0,0,1,1.08-1.27c.26-.26.67-.63,1.22-1.12l5.69-5c2.46-2.17,4.28-3.81,5.47-4.95.61-.57,1.31-1.26,2.09-2.06q1.88-1.91,3.19-3.48A31.34,31.34,0,0,0,65,23,26.56,26.56,0,0,0,67.36,17.9ZM40.3,50.55q-2.8-.34-5.7-.74l-.13-.3a1.39,1.39,0,0,0-.16-.3,2.81,2.81,0,0,0-.18-.57,8.06,8.06,0,0,1-.62-2.43,6.83,6.83,0,0,1,.18-2.48,8.47,8.47,0,0,1,2.66-4.13,16.35,16.35,0,0,1,2-1.49c.54-.34,1.26-.76,2.15-1.26q1.92-1,5.47-2.79,3.82-1.91,5.49-2.79c2-1.06,3.78-2.1,5.3-3.1a37.54,37.54,0,0,0,4.83-3.78,28.2,28.2,0,0,0,2.94-3.19,23.12,23.12,0,0,1-1.24,2.07A29,29,0,0,1,61.14,26q-.77.88-2.37,2.58l-2.05,2.17c-.71.76-1.25,1.31-1.63,1.68s-1,.89-1.79,1.57Q50.89,36.08,45,41.22c-.61.54-1.06,1-1.36,1.24a12,12,0,0,0-1.21,1.37A13,13,0,0,0,41,46.68a10.39,10.39,0,0,0-.69,2.63A5.73,5.73,0,0,0,40.3,50.55ZM60.49,15.93a33.06,33.06,0,0,0,.76-5.28,21.55,21.55,0,0,0-.16-4.06c.13.37.27.78.42,1.24.32,1,.54,1.75.67,2.23a11.79,11.79,0,0,1,.36,2.3,12.11,12.11,0,0,1-.11,2.26q-.09.57-.39,2.25a3.29,3.29,0,0,0-.08.75,1.11,1.11,0,0,0,.22.68.94.94,0,0,0,.6.37,1.31,1.31,0,0,0,.73-.05,2.87,2.87,0,0,0,1.15-.86,15.44,15.44,0,0,0,1.54-2.05c-.27.61-.47,1.07-.61,1.37a21.66,21.66,0,0,1-5.12,6.58,35.54,35.54,0,0,1-3.57,2.8A53.57,53.57,0,0,0,60.49,15.93Zm-.8-9.71a20.51,20.51,0,0,1,.15,5.68A32.46,32.46,0,0,1,59.13,16c-.28,1.16-.65,2.49-1.12,4-.42,1.32-.83,2.47-1.22,3.46a28.89,28.89,0,0,1-1.54,3.33,2.27,2.27,0,0,0-.31.79.6.6,0,0,0,0,.19c-.45.28-.92.56-1.4.84Q51.1,30,47.67,31.76l-6,3c-1.26.64-2.24,1.16-2.95,1.57A20.36,20.36,0,0,0,36,38.18l-.31.27.13-.2A20.27,20.27,0,0,1,37.72,36Q40,33.5,44.08,30q5.34-4.62,6.56-5.76A34.33,34.33,0,0,0,54.52,20a24.67,24.67,0,0,0,3.61-7.14A41.54,41.54,0,0,0,59.69,6.22ZM36.08,28.35l.38-.31q2-1.66,7.27-5.45A90.58,90.58,0,0,0,50.87,17a32.13,32.13,0,0,0,5.89-6.94,22.17,22.17,0,0,0,1.4-2.68,38.4,38.4,0,0,1-1.25,4.91,23.56,23.56,0,0,1-2.46,5.55,21.84,21.84,0,0,1-2.19,2.86c-.67.75-1.51,1.6-2.53,2.56s-3.1,2.8-6.35,5.64q-4,3.48-6.22,5.77a22.89,22.89,0,0,0-2.38,2.81A27.61,27.61,0,0,0,33,40.84c-.46,1-.79,1.77-1,2.3a6,6,0,0,0-.18,3.8c.08.32.21.77.4,1.36s.31.91.44,1.24l-.66-.1A6.58,6.58,0,0,1,30.5,47a11.72,11.72,0,0,1-.64-3.67,19.31,19.31,0,0,1,1.93-8.8A21.48,21.48,0,0,1,36.08,28.35ZM26.3,42.66a21.61,21.61,0,0,1,4.32-8.74,21,21,0,0,0-2.06,8.33,14.57,14.57,0,0,0,.52,4.54,9.92,9.92,0,0,0,1.05,2.38l-2.95-.44a4.72,4.72,0,0,0-.54-.07c0-.14-.1-.3-.17-.49A9.79,9.79,0,0,1,26.3,42.66Zm-3.7,18a38.38,38.38,0,0,1,2.67-7.93A8.51,8.51,0,0,1,26,51.32c.23-.3.37-.5.44-.61h0l4.13.58,3.57.49a.19.19,0,0,0,.08.07,2.44,2.44,0,0,1,1.06.09q4.78.64,7.64,1,0,2.29.06,9.57a2,2,0,0,0-.69.34,1,1,0,0,0-.27.26,3.73,3.73,0,0,0-.44.32l-1.15.94a7,7,0,0,0-.6.52q-.16.19-.39.42l-.14.15-.05,0h0a24.38,24.38,0,0,1-2.7,2.12c-.53.54-1.07,1-1.65,1.54L35.2,69c-.88.82-1.6,1.45-2.16,1.9s-1.12.89-2,1.57l-.17.13-.19.19c-.16.16-.4.37-.71.64s-.58.49-.72.62a12.47,12.47,0,0,0-.89.94c-.5-.77-.93-1.37-1.27-1.82a11.35,11.35,0,0,0-2.38-2.3,12.44,12.44,0,0,0-2.59-1.3s0-.08,0-.12,0-.31,0-.56A27,27,0,0,1,22.6,60.63ZM34,159.38l0,.56-.73,19,.44.32-.44-.31h0a51.35,51.35,0,0,1-8.89-7.76c-.56-.61-1.1-1.23-1.62-1.87A51.51,51.51,0,0,1,18.34,110,8,8,0,0,0,20,112.59a5.62,5.62,0,0,0,1.84,1.27,4.41,4.41,0,0,0,2.17.38,9.62,9.62,0,0,0,1.51-.32,10.07,10.07,0,0,0,2.56-1,6.39,6.39,0,0,0,.75-.58c.08-.06.2-.17.36-.32q1,6.9,1.92,15.16.7,6.12,2,18.35l.63,6c.28,2.59.45,4.48.53,5.67.05.6.08,1.19.11,1.76Zm77.66-7.54a51.25,51.25,0,0,1-9.44,17.44c-.52.64-1.06,1.26-1.62,1.87q-1.5,1.65-3.14,3.16h0l-.35.33a50.83,50.83,0,0,1-5.84,4.59q-2.06,1.38-4.24,2.58T82.55,184q-1.15.5-2.34.93c-1.58.57-3.19,1.08-4.84,1.5a51.93,51.93,0,0,1-25.74,0c-1.65-.42-3.26-.93-4.84-1.5q-1.18-.43-2.34-.93-2.31-1-4.5-2.16c-.93-.51-1.83-1.05-2.73-1.61L36,160v-4.66c-.1-1.35-.18-2.69-.31-4.06-.19-2-.46-4.54-.82-7.66l-1.46-13.08q-.85-7.62-1.31-11.44-.6-4.8-1.18-8.86a0,0,0,0,1,0,0l.11-.15a2.15,2.15,0,0,1-.25-.86c-.08-.15-.13-.28-.17-.36a4.61,4.61,0,0,1-.25-1c0-.2-.06-.53-.1-1a.69.69,0,0,0-.17-.17.72.72,0,0,0-.74,0,1.13,1.13,0,0,0-.59.55,2,2,0,0,0-.14.78,6.24,6.24,0,0,0,.07.81l.12.75a12.94,12.94,0,0,1-2.2,1.64,6.24,6.24,0,0,1-2,.81,3.59,3.59,0,0,1-2.07-.1,3.79,3.79,0,0,1-1.81-1.56,8.9,8.9,0,0,1-.94-2.25c-.09-.31-.19-.71-.31-1.2-.17-.71-.27-1.12-.29-1.22-.25-1-.51-1.89-.78-2.64a15,15,0,0,0-1.14-2.51,2.64,2.64,0,0,0-.95-1,1.15,1.15,0,0,0-.29-.11c-.13-.12-.29-.26-.48-.41A18.47,18.47,0,0,1,9.34,88.47a17.91,17.91,0,0,1-.12-6.2,17.7,17.7,0,0,1,1.95-5.89,10.28,10.28,0,0,1,4.54-4.71,7.48,7.48,0,0,1,5.11-.35,8.4,8.4,0,0,1,4.4,2.77,14.33,14.33,0,0,1,1.07,1.47c.52.77.86,1.27,1,1.5a2.84,2.84,0,0,0,.44.47,1.7,1.7,0,0,0,.19.53,6.85,6.85,0,0,0,.45.72,29.47,29.47,0,0,1,3.35,6.89,73.53,73.53,0,0,1,2,7.45c.24,1,.4,1.81.48,2.29q.25,1.28.36,2.31c0,.34.08.87.13,1.56s.1,1.22.13,1.56q.15,1.3,1.12,5.47a23.35,23.35,0,0,1,.74,5.48,6.08,6.08,0,0,0,0,.76,1.35,1.35,0,0,0,.26.68,1.37,1.37,0,0,0,.58.38,4.37,4.37,0,0,0,.7.16L45,114.85a5.47,5.47,0,0,0,.62.07,1.76,1.76,0,0,0,.33,0c0-.33,0-.63.07-.89a9.26,9.26,0,0,0,.15-1,10.86,10.86,0,0,0,0-1.19c0-.3,0-.55,0-.77q-.85-8.66-1.2-19.3c-.08-2.8-.16-6.44-.22-10.94,0,.11,0,.22.07.33.15.71.39,1.76.73,3.17l.4,2a19.1,19.1,0,0,0,.5,1.94,6.78,6.78,0,0,0,2.16,3.29,5.23,5.23,0,0,0,.58.4l.6.37,1.4.91a4.73,4.73,0,0,0,1.52.61l.43.06.31.12.62.18a1.16,1.16,0,0,0,.21.15,1,1,0,0,0,.31.16.53.53,0,0,0,.39-.06c.44.11.85.19,1.23.25a9.62,9.62,0,0,0,1.65.13,7.59,7.59,0,0,0,1,.11c.32,0,.74,0,1.27,0a51.71,51.71,0,0,0,6.18-.53,22.12,22.12,0,0,0,2.3-.44,9.91,9.91,0,0,0,2.18-.81,9,9,0,0,0,2.94-2.51,12.9,12.9,0,0,0,1.88-3.46,22.18,22.18,0,0,0,1-3.77c.15-.91.32-2.21.5-3.89l.26-2.39a1.11,1.11,0,0,0,.29-.07,1.68,1.68,0,0,0,.39-.19,2.59,2.59,0,0,1,.38-.19,3,3,0,0,1,.71-.16l.43-.06a64.73,64.73,0,0,0,1.65,9.36,9.42,9.42,0,0,0,.53,1.58,8.91,8.91,0,0,0,1.07,1.54,16.56,16.56,0,0,0,2.46,2.49A11.32,11.32,0,0,0,89,93.28a14.11,14.11,0,0,0,4.14.63,3,3,0,0,0,1.14-.18,5.48,5.48,0,0,0,.56.1q.93,7.44,2,16.49.72,5.88,1,9.23a197,197,0,0,1,.49,22.7c-.07,2.05-.19,4.82-.37,8.28V155h0l-.51,19.29h0c.7-.65,1.38-1.33,2-2l.47-17.41,0-2h-.21q.42-8.34.57-16.59.09-3.47.06-5.9,0-3.21-.21-5.91-.14-1.86-.51-5.51-1-9.56-2.3-20.23a51.54,51.54,0,0,1,14.23,53.13Z"/><path d="M33.71,179.23l-.44-.32h0Z"/><polygon points="97.48 174.31 97.48 174.31 97.48 174.31 97.48 174.31"/><path d="M29.77,98.2a1.52,1.52,0,0,0-.91-.22,7,7,0,0,0-.91.17,3,3,0,0,1-.91.1,1.82,1.82,0,0,1-.92-.32,2.13,2.13,0,0,1-.7-.7,3.21,3.21,0,0,1-.43-1.9,4.33,4.33,0,0,1,2.55-3.64l.84-.39a1.16,1.16,0,0,0,.57-.62,1,1,0,0,0,.05-.43,3.63,3.63,0,0,0-.05-.44A26.25,26.25,0,0,0,24.5,79.06,10.66,10.66,0,0,0,23,77.44a6.24,6.24,0,0,0-3.25-1.36,6.13,6.13,0,0,0-3.48.55A10,10,0,0,0,13.36,79a6.26,6.26,0,0,0-1.16,1.61,5.21,5.21,0,0,0-.36,1.18,5.14,5.14,0,0,0-.2.55,8.63,8.63,0,0,0-.34,2.45,18.23,18.23,0,0,0,.18,2.51,8.8,8.8,0,0,0,.29,1.48c0,.2.07.39.1.6a4.43,4.43,0,0,0,.74,2,1.39,1.39,0,0,0,.57.43.75.75,0,0,0,.64,0,.7.7,0,0,0,.3-.39,1.12,1.12,0,0,0,.06-.52,2.31,2.31,0,0,0-.13-.46c0-.08,0-.16,0-.24,0-.26,0-.51,0-.73v-.18c0-.43,0-.8.07-1.11a4.91,4.91,0,0,1,.17-.62,37.65,37.65,0,0,1,1.89-4.48A7.58,7.58,0,0,1,16.73,82a5.49,5.49,0,0,1,1-1.07q.38-.33,1.14-.9l1.7-1.27a2.86,2.86,0,0,0,.56-.48,5.16,5.16,0,0,1,1,.68,10.17,10.17,0,0,1,2,2.55q.15.23.27.45a5,5,0,0,0-1.77,1.49,7.45,7.45,0,0,0-1,1.55,4.62,4.62,0,0,0-.43,1.88,5.15,5.15,0,0,0,.36,1.91,5,5,0,0,0,1.05,1.64,5.34,5.34,0,0,0,1.55,1.16,2.43,2.43,0,0,0,.53.23A5.61,5.61,0,0,0,23.36,96,5.76,5.76,0,0,0,24,98.15a3.06,3.06,0,0,0,1.45,1.48,2.82,2.82,0,0,0,.82.2c.2,0,.48,0,.85,0l1.3,0,.58,0a2,2,0,0,0,.54-.12,1.06,1.06,0,0,0,.47-.33.79.79,0,0,0-.24-1.22Z"/><path d="M93.2,114.91c-.27-.59-.53-1.26-.79-2-.16-.48-.38-1.17-.64-2.07l-.45-1.5c-.11-.36-.21-.7-.3-1a.69.69,0,0,0-.14-.5l0,0c-.52-1.8-.89-3.21-1.11-4.24,0-.17-.08-.3-.1-.36a1,1,0,0,0-.17-.33.76.76,0,0,0-.39-.28.82.82,0,0,0-.49,0,.89.89,0,0,0-.42.24.84.84,0,0,0-.22.44,1.12,1.12,0,0,0,0,.48,4.69,4.69,0,0,0,.14.47c.15.46.27.86.38,1.22l.75,2.58-.26.19a6.46,6.46,0,0,1-1.49.73,14.53,14.53,0,0,1-1.62.45,58.08,58.08,0,0,1-8.44,1.24c-1.91.16-4.76.29-8.54.41l-4.82.16h-.33c0-.35,0-.52,0-.53a7.78,7.78,0,0,0,.15-.8,4.45,4.45,0,0,0,0-.56,5,5,0,0,1,0-.56c0-.12.07-.47.18-1.06a3.29,3.29,0,0,0,0-1.07,1.09,1.09,0,0,0-.39-.66.77.77,0,0,0-1.1.26,1.09,1.09,0,0,0-.1.49c0,.11,0,.28,0,.5a3.34,3.34,0,0,1-.11.53,3.72,3.72,0,0,0-.11.51,3,3,0,0,0,0,.59,4.32,4.32,0,0,1,0,.58,3.18,3.18,0,0,1-.09.48c-.05.23-.08.38-.09.47a5.89,5.89,0,0,0-.1,1c0,.3-.08.57-.13.82-.13.79-.25,1.44-.37,2s-.28,1-.48,1.64c-.11.33-.3.87-.56,1.61a3.23,3.23,0,0,1-.29.63l-.2.26a1.54,1.54,0,0,0-.19.28.79.79,0,0,0-.07.41,1.12,1.12,0,0,0,.14.4.87.87,0,0,0,.32.28.74.74,0,0,0,.41.08,1,1,0,0,0,.81-.45,3.33,3.33,0,0,0,.44-.83,20.63,20.63,0,0,0,1-2.83c0-.06.08-.32.18-.76.15-.65.27-1.24.37-1.78l.46-.1a8.85,8.85,0,0,1,1.41-.2c.29,0,.77,0,1.43,0q5.58-.06,9.42-.35a74.63,74.63,0,0,0,9.33-1.22,18.4,18.4,0,0,0,2.49-.64,8.58,8.58,0,0,0,1.7-.77l.09.32c.37,1.32.6,2.1.68,2.37.27.89.52,1.66.77,2.33a10.82,10.82,0,0,0,.74,1.68c.23.41.48.64.75.67a.63.63,0,0,0,.58-.24,1,1,0,0,0,.25-.62,1.61,1.61,0,0,0-.12-.65A5.05,5.05,0,0,0,93.2,114.91Z"/><path class="cls-2" d="M41.82,71.53c0-.36-.07-.63-.07-.83,0-.52-.07-1.11-.08-1.79v-1.8a8.22,8.22,0,0,1,.11-1.42A4.76,4.76,0,0,0,41.9,65s0,0,0,0q-.44.35-1,.81a2.7,2.7,0,0,0-.57.6,2.23,2.23,0,0,0-.25,1.15c0,.71,0,1.12,0,1.23a3.57,3.57,0,0,1-.09.39,3.32,3.32,0,0,0-.07.39,3,3,0,0,0,0,.63q0,.56,0,.63c0,.14,0,.36,0,.64a2.65,2.65,0,0,0,0,.65,3.74,3.74,0,0,0,.1.53,3.51,3.51,0,0,1,.11.52s0,.18,0,.4a1.44,1.44,0,0,0,0,.38,1.36,1.36,0,0,0,.12.42l.17.41,0,.15.1,0a.21.21,0,0,0,.2-.06.91.91,0,0,0,.16-.17,2.47,2.47,0,0,1,.45-.37l.52-.29a1.56,1.56,0,0,1,.52-.2c-.07-.17-.15-.38-.23-.64A14.13,14.13,0,0,1,41.82,71.53Z"/><path class="cls-2" d="M82,77.36c-.15-1-.3-2-.45-3h0a2.93,2.93,0,0,1-.38-.16,2.54,2.54,0,0,0-.37-.17,2.13,2.13,0,0,0-.89,0,4.67,4.67,0,0,0-1.37.34L78,74.6l-.31.09-.08.79a4.24,4.24,0,0,1,.87-.31A10.72,10.72,0,0,1,79.65,75c.52-.07.85,0,1,.26v0l0,0a1.33,1.33,0,0,1,.22.51c0,.12,0,.32.07.58a51.74,51.74,0,0,0,1.19,7.46l.36-.46.38-.51.18-.18a23.54,23.54,0,0,1-.61-2.5C82.38,79.67,82.21,78.72,82,77.36Z"/><path class="cls-2" d="M38.84,74a4.86,4.86,0,0,0,0-.51c0-.13,0-.28-.06-.47s-.08-.36-.1-.47A8.91,8.91,0,0,1,38.6,71a14.32,14.32,0,0,1,.07-1.7c.06-.32.09-.56.12-.72s.06-.54.07-.73,0-.15,0-.31h0l-.66.48a9.21,9.21,0,0,0-1,.89c-.22.2-.55.52-1,1a32,32,0,0,1-2.83,2.52c-.21.17-.82.63-1.82,1.37a12.18,12.18,0,0,0-.95.78,4.47,4.47,0,0,0-.78.9,20.79,20.79,0,0,1,1.31,2,3,3,0,0,1,.51.69,3.59,3.59,0,0,1,.29.88l.24.54q.3-.24.78-.69l.78-.71a17.53,17.53,0,0,1,2.23-1.46,14,14,0,0,0,2.17-1.51l.45-.41a1.85,1.85,0,0,1,.34-.21.39.39,0,0,1,0-.14A2.66,2.66,0,0,1,38.84,74Z"/><path class="cls-2" d="M47.44,81.05l-.16-1.66c-.07-.72-.14-1.25-.19-1.6a10.06,10.06,0,0,0-.35-1.58l-.22-.66a1.6,1.6,0,0,1-.05-.21l-.89-.13c-.16,0-.38,0-.68,0h-.15l-.52,0a2.56,2.56,0,0,1-1-.29.08.08,0,0,1,0,0l-.12.13a2.77,2.77,0,0,1-.39.24l-.24.14h1a6,6,0,0,1,.69,0,1.76,1.76,0,0,1,.6.17l0,0a1.68,1.68,0,0,1,.73,1,5.76,5.76,0,0,1,.22,1.32c.1.94.26,2,.49,3.2.12.61.35,1.65.68,3.14l.22-.3a2,2,0,0,1,.56-.51,0,0,0,0,1,0,0l0-.24C47.61,82.67,47.53,82,47.44,81.05Z"/><path class="cls-3" d="M48,85.21a.13.13,0,0,1,0-.06,1.28,1.28,0,0,1-.21.37,2.33,2.33,0,0,1-.33.36c-.05.05-.11.09-.15.14s0,.09,0,.12a15.5,15.5,0,0,0,.46,1.72,5.36,5.36,0,0,0,.78,1.57,5.42,5.42,0,0,0,1.12,1.13,13,13,0,0,0,1.34.91s0,0,0,0A9.73,9.73,0,0,1,50,90,16,16,0,0,1,48,85.21Z"/><path class="cls-3" d="M85.26,87.42a18.06,18.06,0,0,1-1.66-3.21,2.43,2.43,0,0,0-.22.29,5.86,5.86,0,0,1-.54.7,1.62,1.62,0,0,1-.28.25l.14.48a6.61,6.61,0,0,0,.56,1.25,8.59,8.59,0,0,0,1,1.28A16.88,16.88,0,0,0,85.72,90a7.81,7.81,0,0,0,1.71,1.21,12.64,12.64,0,0,0,2,.72l.6.17A14.39,14.39,0,0,1,88.51,91,15.42,15.42,0,0,1,85.26,87.42Z"/><path class="cls-4" d="M72.19,73.2c0-.28,0-.46,0-.53a.79.79,0,0,0-.21-.46,1.17,1.17,0,0,0-.63-.25c-.88-.14-2.11-.26-3.71-.36q-3.06-.19-5.16-.21a41.06,41.06,0,0,0-5.14.24c-.61.06-1.7.22-3.27.46a7.07,7.07,0,0,0-1.38.34,2.35,2.35,0,0,0-1,.62.44.44,0,0,1,.08.11,1.82,1.82,0,0,0-.25,1.25A31.54,31.54,0,0,0,52,77.57l.13.69s0,.09,0,.14l.11.67c.15.79.28,1.41.4,1.85s.27.66.44,1a13.54,13.54,0,0,0,1.37,2.17,5.45,5.45,0,0,0,.52.77,4,4,0,0,0,.66.6l.22.16.32.28c.19.16.38.32.57.46a6.46,6.46,0,0,0,1,.78,0,0,0,0,1,0,0,5.28,5.28,0,0,0,.76.47l.34.14a2.17,2.17,0,0,0,.48.2,5.26,5.26,0,0,0,2.23.21l.44,0a8.08,8.08,0,0,0,2,0h0l0,0,.06.11a7.49,7.49,0,0,0,1.29-.24,5.65,5.65,0,0,0,.91-.39q.3-.15.87-.48l.79-.49a5,5,0,0,0,.71-.59L69,85.8l.18-.06a2.29,2.29,0,0,0,.48-.33s0,0,0,0A1.66,1.66,0,0,1,70,85l0,0,.25-.33a9,9,0,0,0,.92-2,16.63,16.63,0,0,0,.54-2.12c.05-.24.1-.5.14-.77l.3-1.72a18.6,18.6,0,0,0,.19-4.21A1.29,1.29,0,0,1,72.19,73.2Zm-9.43,8.74a3.68,3.68,0,0,1-2.7,1.12,3.81,3.81,0,0,1-3.82-3.83,3.83,3.83,0,1,1,6.52,2.71Z"/><path class="cls-4" d="M61.33,76.77a1.08,1.08,0,0,0-1.1,1.1,1.09,1.09,0,0,0,.31.78,1.07,1.07,0,0,0,.79.33,1,1,0,0,0,.77-.33,1.07,1.07,0,0,0,.33-.78,1,1,0,0,0-.33-.78A1,1,0,0,0,61.33,76.77Z"/><path class="cls-4" d="M106.33,82.12a4.08,4.08,0,0,0-.66.15l-.5.21a2.12,2.12,0,0,1-.29.11c0,.14-.11.27-.17.41a9.17,9.17,0,0,1-3.18,4,9.08,9.08,0,0,1-5.34,1.33,18.83,18.83,0,0,1-2-.18l-.36-.06a14.07,14.07,0,0,1-1.46-.34A5,5,0,0,1,91,87.18a7.84,7.84,0,0,1-1.63-1.64,13.19,13.19,0,0,1-1.29-1.84,1.74,1.74,0,0,1-.51.07l-1,0a4.26,4.26,0,0,0-.66.06l-.34.06-.22,0a14.89,14.89,0,0,0,1.73,3.07A13.19,13.19,0,0,0,90,90a11.53,11.53,0,0,0,3.74,1.83c.31.08.62.16.93.22a11.49,11.49,0,0,0,2,.18,9.2,9.2,0,0,0,1.17-.08,16.18,16.18,0,0,0,3.27-.85,13.86,13.86,0,0,0,1.33-.54,6.45,6.45,0,0,0,1.23-.74,8.7,8.7,0,0,0,1.91-2.19,23.35,23.35,0,0,0,2.9-6.14A12.47,12.47,0,0,1,107,82Z"/><path class="cls-4" d="M85.34,54.69l0,0-.39,0a5.44,5.44,0,0,0-.87,0l-.29.07q-7.4.15-13.06.1-7.76-.09-14.39-.55Q51,53.92,44.58,53.15l.06,9c.82-.14,1.74-.27,2.76-.38a83.59,83.59,0,0,1,21.92.88q2.45.39,4,.75a9.54,9.54,0,0,1,1.91.65,4.06,4.06,0,0,1,.74.46,5.2,5.2,0,0,1,2.85-.75,9.34,9.34,0,0,1,4.37,1l.1.06,0,0a8.69,8.69,0,0,1,1.19-.62l1.26-.48c1.32-.49,2.37-.85,3.13-1.07a18.81,18.81,0,0,1,3-.68c-.07-2.66-.06-5.18,0-7.59,0-.07,0-.15,0-.22a29.37,29.37,0,0,1-3.12.35C88,54.6,86.84,54.65,85.34,54.69Z"/><path class="cls-4" d="M104.83,70.41c-.25,0-.63-.15-1.15-.31a11.87,11.87,0,0,0-1.15-.3,7.59,7.59,0,0,0-1.06-.12c-.23,0-.59,0-1.06,0-1.86,0-3.3,0-4.3.13-.58.06-1.2.15-1.87.28s-1.25.24-1.92.41-1.43.34-2.19.56-1.07.33-1.29.41a7,7,0,0,0-1.63.87l-.13.09a1.83,1.83,0,0,1,.09.4l.73,5.51c.11.82.21,1.44.29,1.86A9,9,0,0,0,88.72,82a9.63,9.63,0,0,0,.66,1.26c.18.3.45.69.79,1.18.24.34.43.61.59.79a4,4,0,0,0,.72.67,3.38,3.38,0,0,0,.91.47q.39.12,1,.27l.57.11A17.68,17.68,0,0,0,96,87a10.58,10.58,0,0,0,1.51,0,6.88,6.88,0,0,0,3.82-1.47,7.21,7.21,0,0,0,1.8-2.3,15.85,15.85,0,0,0,1.07-2.8,34.67,34.67,0,0,0,1.35-9.6l-.11-.1A1.82,1.82,0,0,0,104.83,70.41Zm-8,10.8a3.4,3.4,0,1,1,1-2.4A3.27,3.27,0,0,1,96.81,81.21Z"/><path class="cls-4" d="M95.54,76.65a1,1,0,0,0-.69.29,1,1,0,0,0,0,1.38,1,1,0,0,0,.69.29,1,1,0,0,0,.7-.29,1,1,0,0,0,0-1.38A1,1,0,0,0,95.54,76.65Z"/><path class="cls-4" d="M73.83,83.1l-.7,0H72.5A9.38,9.38,0,0,1,71,85.88c-.12.15-.23.28-.35.41a9,9,0,0,1-.9,1.17,20.78,20.78,0,0,1-3,1.56,6.58,6.58,0,0,1-1.17.39,7.14,7.14,0,0,1-1.11.07l-3.29.07c-.48,0-.87,0-1.17,0a7.36,7.36,0,0,0-.88-.29l-.55-.15a3,3,0,0,1-.52-.2l-.29-.17-.18-.09c-.23-.11-.56-.3-1-.57l-.94-.56L55,87.05a7.9,7.9,0,0,1-1.81-2,13,13,0,0,1-.76-1.24,1.85,1.85,0,0,1-.45.11c-.18,0-.58.08-1.18.12a6.73,6.73,0,0,0-1.18.18l-.08,0a6.55,6.55,0,0,0,.17,1,10.43,10.43,0,0,0,.54,1.41c.35.78.65,1.39.88,1.81a9.23,9.23,0,0,0,1.13,1.66,5.74,5.74,0,0,0,1.53,1.31A4.29,4.29,0,0,0,55,92a9.41,9.41,0,0,0,1,.42,8.61,8.61,0,0,0,1.55.34l.09,0c.36.08.62.12.78.14h.15a1,1,0,0,1,.07.25c.26,0,.55,0,.85,0s.79,0,1.38-.06c2-.12,3.66-.25,4.88-.41A18.23,18.23,0,0,0,68,92.33a9.16,9.16,0,0,0,2-.74,7.6,7.6,0,0,0,2.37-2,10.89,10.89,0,0,0,1.6-2.7,16.36,16.36,0,0,0,.92-3c.06-.3.12-.63.18-1a3,3,0,0,1-.49.14Z"/><path class="cls-4" d="M96.87,110.32q-1.08-9.06-2-16.49a5.48,5.48,0,0,1-.56-.1,3,3,0,0,1-1.14.18A14.11,14.11,0,0,1,89,93.28a11.32,11.32,0,0,1-3.69-1.9,16.56,16.56,0,0,1-2.46-2.49,8.91,8.91,0,0,1-1.07-1.54,9.42,9.42,0,0,1-.53-1.58,64.73,64.73,0,0,1-1.65-9.36l-.43.06a3,3,0,0,0-.71.16,2.59,2.59,0,0,0-.38.19,1.68,1.68,0,0,1-.39.19,1.11,1.11,0,0,1-.29.07l-.26,2.39c-.18,1.68-.35,3-.5,3.89a22.18,22.18,0,0,1-1,3.77,12.9,12.9,0,0,1-1.88,3.46,9,9,0,0,1-2.94,2.51,9.91,9.91,0,0,1-2.18.81,22.12,22.12,0,0,1-2.3.44,51.71,51.71,0,0,1-6.18.53c-.53,0-1,0-1.27,0a7.59,7.59,0,0,1-1-.11,9.62,9.62,0,0,1-1.65-.13c-.38-.06-.79-.14-1.23-.25a.53.53,0,0,1-.39.06,1,1,0,0,1-.31-.16,1.16,1.16,0,0,1-.21-.15L53.51,94l-.31-.12-.43-.06a4.73,4.73,0,0,1-1.52-.61l-1.4-.91-.6-.37a5.23,5.23,0,0,1-.58-.4,6.78,6.78,0,0,1-2.16-3.29,19.1,19.1,0,0,1-.5-1.94l-.4-2c-.34-1.41-.58-2.46-.73-3.17,0-.11,0-.22-.07-.33.06,4.5.14,8.14.22,10.94q.34,10.65,1.2,19.3c0,.22,0,.47,0,.77a10.86,10.86,0,0,1,0,1.19,9.26,9.26,0,0,1-.15,1c0,.26-.06.56-.07.89a1.76,1.76,0,0,1-.33,0,5.47,5.47,0,0,1-.62-.07l-6.71-1.08a4.37,4.37,0,0,1-.7-.16,1.37,1.37,0,0,1-.58-.38,1.35,1.35,0,0,1-.26-.68,6.08,6.08,0,0,1,0-.76,23.35,23.35,0,0,0-.74-5.48q-1-4.17-1.12-5.47c0-.34-.08-.86-.13-1.56s-.09-1.22-.13-1.56q-.1-1-.36-2.31c-.08-.48-.24-1.24-.48-2.29a73.53,73.53,0,0,0-2-7.45,29.47,29.47,0,0,0-3.35-6.89,6.85,6.85,0,0,1-.45-.72,1.7,1.7,0,0,1-.19-.53,2.84,2.84,0,0,1-.44-.47c-.17-.23-.51-.73-1-1.5a14.33,14.33,0,0,0-1.07-1.47,8.4,8.4,0,0,0-4.4-2.77,7.48,7.48,0,0,0-5.11.35,10.28,10.28,0,0,0-4.54,4.71,17.7,17.7,0,0,0-1.95,5.89,17.91,17.91,0,0,0,.12,6.2A18.47,18.47,0,0,0,15.57,99c.19.15.35.29.48.41a1.15,1.15,0,0,1,.29.11,2.64,2.64,0,0,1,.95,1,15,15,0,0,1,1.14,2.51c.27.75.53,1.64.78,2.64,0,.1.12.51.29,1.22.12.49.22.89.31,1.2a8.9,8.9,0,0,0,.94,2.25,3.79,3.79,0,0,0,1.81,1.56,3.59,3.59,0,0,0,2.07.1,6.24,6.24,0,0,0,2-.81,12.94,12.94,0,0,0,2.2-1.64l-.12-.75a6.24,6.24,0,0,1-.07-.81,2,2,0,0,1,.14-.78,1.13,1.13,0,0,1,.59-.55.72.72,0,0,1,.74,0,.69.69,0,0,1,.17.17c0,.47.07.8.1,1a4.61,4.61,0,0,0,.25,1c0,.08.09.21.17.36a2.15,2.15,0,0,0,.25.86l-.11.15a0,0,0,0,0,0,0q.58,4.06,1.18,8.86.46,3.81,1.31,11.44l1.46,13.08c.36,3.12.63,5.68.82,7.66.13,1.37.21,2.71.31,4.06V160l-.78,20.18c.9.56,1.8,1.1,2.73,1.61q2.19,1.19,4.5,2.16,1.15.5,2.34.93c1.58.57,3.19,1.08,4.84,1.5a51.93,51.93,0,0,0,25.74,0c1.65-.42,3.26-.93,4.84-1.5q1.19-.43,2.34-.93,2.31-1,4.5-2.16t4.24-2.58a50.83,50.83,0,0,0,5.84-4.59l.35-.33L98,155h0v-4.49c.18-3.46.3-6.23.37-8.28a197,197,0,0,0-.49-22.7Q97.6,116.2,96.87,110.32ZM30,99.42a1.06,1.06,0,0,1-.47.33,2,2,0,0,1-.54.12l-.58,0-1.3,0c-.37,0-.65,0-.85,0a2.82,2.82,0,0,1-.82-.2A3.06,3.06,0,0,1,24,98.15,5.76,5.76,0,0,1,23.36,96a5.61,5.61,0,0,1,1.29-4.19,2.43,2.43,0,0,1-.53-.23,5.34,5.34,0,0,1-1.55-1.16,5,5,0,0,1-1.05-1.64,5.15,5.15,0,0,1-.36-1.91A4.62,4.62,0,0,1,21.59,85a7.45,7.45,0,0,1,1-1.55A5,5,0,0,1,24.35,82q-.12-.23-.27-.45a10.17,10.17,0,0,0-2-2.55,5.16,5.16,0,0,0-1-.68,2.86,2.86,0,0,1-.56.48L18.83,80q-.76.57-1.14.9a5.49,5.49,0,0,0-1,1.07,7.58,7.58,0,0,0-.55,1.06,37.65,37.65,0,0,0-1.89,4.48,4.91,4.91,0,0,0-.17.62c0,.31,0,.68-.07,1.11v.18c0,.22,0,.47,0,.73,0,.08,0,.16,0,.24a2.31,2.31,0,0,1,.13.46,1.12,1.12,0,0,1-.06.52.7.7,0,0,1-.3.39.75.75,0,0,1-.64,0,1.39,1.39,0,0,1-.57-.43,4.43,4.43,0,0,1-.74-2c0-.21-.06-.4-.1-.6a8.8,8.8,0,0,1-.29-1.48,18.23,18.23,0,0,1-.18-2.51,8.63,8.63,0,0,1,.34-2.45,5.14,5.14,0,0,1,.2-.55,5.21,5.21,0,0,1,.36-1.18A6.26,6.26,0,0,1,13.36,79a10,10,0,0,1,2.93-2.34,6.13,6.13,0,0,1,3.48-.55A6.24,6.24,0,0,1,23,77.44a10.66,10.66,0,0,1,1.48,1.62A26.25,26.25,0,0,1,29,89.81a3.63,3.63,0,0,1,.05.44,1,1,0,0,1-.05.43,1.16,1.16,0,0,1-.57.62l-.84.39A4.33,4.33,0,0,0,25,95.33a3.21,3.21,0,0,0,.43,1.9,2.13,2.13,0,0,0,.7.7,1.82,1.82,0,0,0,.92.32,3,3,0,0,0,.91-.1,7,7,0,0,1,.91-.17,1.52,1.52,0,0,1,.91.22A.79.79,0,0,1,30,99.42ZM93.35,116.8a.63.63,0,0,1-.58.24c-.27,0-.52-.26-.75-.67a10.82,10.82,0,0,1-.74-1.68c-.25-.67-.5-1.44-.77-2.33-.08-.27-.31-1-.68-2.37l-.09-.32a8.58,8.58,0,0,1-1.7.77,18.4,18.4,0,0,1-2.49.64,74.63,74.63,0,0,1-9.33,1.22q-3.84.28-9.42.35c-.66,0-1.14,0-1.43,0a8.85,8.85,0,0,0-1.41.2l-.46.1c-.1.54-.22,1.13-.37,1.78-.1.44-.16.7-.18.76a20.63,20.63,0,0,1-1,2.83,3.33,3.33,0,0,1-.44.83,1,1,0,0,1-.81.45.74.74,0,0,1-.41-.08.87.87,0,0,1-.32-.28,1.12,1.12,0,0,1-.14-.4.79.79,0,0,1,.07-.41,1.54,1.54,0,0,1,.19-.28l.2-.26a3.23,3.23,0,0,0,.29-.63c.26-.74.45-1.28.56-1.61.2-.61.36-1.15.48-1.64s.24-1.16.37-2c0-.25.09-.52.13-.82a5.89,5.89,0,0,1,.1-1c0-.09,0-.24.09-.47a3.18,3.18,0,0,0,.09-.48,4.32,4.32,0,0,0,0-.58,3,3,0,0,1,0-.59,3.72,3.72,0,0,1,.11-.51,3.34,3.34,0,0,0,.11-.53c0-.22,0-.39,0-.5a1.09,1.09,0,0,1,.1-.49.77.77,0,0,1,1.1-.26,1.09,1.09,0,0,1,.39.66,3.29,3.29,0,0,1,0,1.07c-.11.59-.17.94-.18,1.06a5,5,0,0,0,0,.56,4.45,4.45,0,0,1,0,.56,7.78,7.78,0,0,1-.15.8s0,.18,0,.53h.33l4.82-.16c3.78-.12,6.63-.25,8.54-.41a58.08,58.08,0,0,0,8.44-1.24,14.53,14.53,0,0,0,1.62-.45,6.46,6.46,0,0,0,1.49-.73l.26-.19-.75-2.58c-.11-.36-.23-.76-.38-1.22a4.69,4.69,0,0,1-.14-.47,1.12,1.12,0,0,1,0-.48.84.84,0,0,1,.22-.44.89.89,0,0,1,.42-.24.82.82,0,0,1,.49,0,.76.76,0,0,1,.39.28,1,1,0,0,1,.17.33c0,.06.06.19.1.36.22,1,.59,2.44,1.11,4.24l0,0a.69.69,0,0,1,.14.5c.09.34.19.68.3,1l.45,1.5c.26.9.48,1.59.64,2.07.26.75.52,1.42.79,2a5.05,5.05,0,0,1,.28.62,1.61,1.61,0,0,1,.12.65A1,1,0,0,1,93.35,116.8Z"/><path class="cls-5" d="M94.41,75.42a3.38,3.38,0,1,0,2.4,1A3.27,3.27,0,0,0,94.41,75.42Zm1.83,2.9a1,1,0,0,1-.7.29,1,1,0,0,1-.69-.29,1,1,0,0,1,0-1.38,1,1,0,0,1,.69-.29,1,1,0,0,1,.7.29,1,1,0,0,1,0,1.38Z"/><path class="cls-5" d="M114.11,65.8c-.09-.51-.16-.87-.21-1.07a6.21,6.21,0,0,0-.34-1l-.17,0H113c-.13,0-.32-.05-.57-.1a28.51,28.51,0,0,0-4.53-.57c-1,0-2.55-.07-4.59,0-1.45,0-2.59,0-3.43.1-.4,0-1,.1-1.89.2s-1.45.16-1.89.19l-1.92.12-.37,0c-.63,0-1.14.07-1.54.12l-.35,0a25.32,25.32,0,0,0-7.54,2.55L84,66.5a1.66,1.66,0,0,1-.49.12,1,1,0,0,1-.5-.09l-.1,0-.08,0a4.28,4.28,0,0,1-.85-.28,8,8,0,0,0-2.6-.7,4.24,4.24,0,0,0-1.34.12,4,4,0,0,0-1.13.48s0,0,0,0a.61.61,0,0,1-.37.4.88.88,0,0,1-.47.11,1,1,0,0,1-.33,0,.66.66,0,0,1-.46-.29l-.37-.2a15.42,15.42,0,0,0-4.6-1.68,47.23,47.23,0,0,0-4.92-.7q-6.64-.64-10.81-.65a48.3,48.3,0,0,0-9.86.87l-.85.18-.28.07a8.51,8.51,0,0,1,0,1c0,.32-.09.8-.16,1.44a16,16,0,0,0-.06,1.8,21.66,21.66,0,0,0,.14,2.34c0,.36.14.89.28,1.6a1.57,1.57,0,0,0,.31.72,1,1,0,0,0,.52.24l.2,0,.4,0a6.68,6.68,0,0,1,1.75.23l.19,0a.84.84,0,0,1,.58,0,.77.77,0,0,1,.45.43,1.6,1.6,0,0,1,.08.36c0,.09,0,.21,0,.37a4.29,4.29,0,0,0,.11.68c0,.15.08.37.14.67a20.31,20.31,0,0,1,.42,2.53q.22,1.8.42,3.6l0,.41h.09a22.82,22.82,0,0,1,2.35-.26c-.09-.2-.17-.41-.24-.61a4.79,4.79,0,0,1-.3-.74A10.47,10.47,0,0,1,51,79.59l0-.3-.44-2.55c-.09-.48-.14-.87-.18-1.15,0,0,0-.31,0-.85a4.3,4.3,0,0,0-.11-.84c0-.22-.07-.34-.08-.38a.76.76,0,0,1,0-.38.48.48,0,0,1,.12-.16,1.41,1.41,0,0,1,.33-.77,3.3,3.3,0,0,1,1.44-1,9.52,9.52,0,0,1,1.79-.48c.6-.11,1.35-.22,2.25-.34A53.46,53.46,0,0,1,63.48,70c2.2,0,4.69.21,7.45.49a6.55,6.55,0,0,1,1.2.23,2,2,0,0,1,1,.61,2.14,2.14,0,0,1,.4,1.3,1.22,1.22,0,0,1,.15.62c0,.88,0,1.49,0,1.85,0,.69,0,1.31,0,1.85s-.13,1.15-.25,1.91c-.18,1.08-.32,1.87-.41,2.36,0,.19-.07.38-.11.56h.23c.34,0,.6,0,.8,0l.47-.09a2,2,0,0,1,.47,0,1,1,0,0,1,.38.11c0-.28.08-.58.12-.89.25-1.79.48-3.78.67-6a2.81,2.81,0,0,1,.29-1.16,1,1,0,0,1,.47-.37h0a1.72,1.72,0,0,1,.46-.34,5.14,5.14,0,0,1,1.11-.42c.3-.08.69-.16,1.18-.24a3.71,3.71,0,0,1,1.81,0,2.81,2.81,0,0,1,.46.23l.43.27a.9.9,0,0,1,.27.07,1,1,0,0,1,.4.33,1.85,1.85,0,0,1,.2.47c0,.11.07.28.11.51.16,1,.4,2.58.7,4.64a28.6,28.6,0,0,0,.85,3.62H86.5l.83,0h.16A11.82,11.82,0,0,1,87,80.67q-.21-.93-.45-2.76l-.6-4.51a4,4,0,0,1,0-.51.81.81,0,0,1,0-.16.58.58,0,0,1-.26-.23.66.66,0,0,1,0-.71,2.41,2.41,0,0,1,.56-.51A12.47,12.47,0,0,1,88.69,70c.38-.14.89-.29,1.53-.47s1.37-.37,2-.51,1.32-.3,1.9-.4,1.13-.19,1.63-.24a40.71,40.71,0,0,1,4.27-.16l1.36,0a10.07,10.07,0,0,1,1.33.14c.31.06.7.15,1.16.27L105,69a4.36,4.36,0,0,1,1.16.41.9.9,0,0,1,.24.07.85.85,0,0,1,.48.52,1.54,1.54,0,0,1,.06.7c0,.15,0,.39-.1.71a6.61,6.61,0,0,0-.06,1v1a17.18,17.18,0,0,1-.21,2.33c-.09.57-.25,1.33-.46,2.3s-.42,1.91-.59,2.53l-.09.36s.05,0,.09,0l1.35-.25a13.7,13.7,0,0,0,1.5-.37l.47-.11h0a23.73,23.73,0,0,0,.58-7.41,3.68,3.68,0,0,1,0-.78,1,1,0,0,1,.33-.66.72.72,0,0,1,.58-.16l.15,0a1.38,1.38,0,0,1,.36-.26,3.55,3.55,0,0,1,1-.19c.72,0,1.46-.08,2.21-.1a4.82,4.82,0,0,1,.1-1.1q.13-.83.15-1.11a9,9,0,0,0-.16-1.82Z"/><path class="cls-5" d="M60.06,75.4a3.83,3.83,0,1,0,3.83,3.83,3.86,3.86,0,0,0-3.83-3.83Zm2,3.25a1,1,0,0,1-.77.33,1.07,1.07,0,0,1-.79-.33,1.09,1.09,0,0,1-.31-.78,1.08,1.08,0,0,1,1.1-1.1,1,1,0,0,1,.77.32,1,1,0,0,1,.33.78A1.07,1.07,0,0,1,62.1,78.65Z"/><path class="cls-5" d="M39.64,76.15h0a.54.54,0,0,1-.19-.18q-.81.65-3.18,2.16a17.18,17.18,0,0,0-3.1,2.41l-.39.4-.1.08,0,0a1.22,1.22,0,0,1,.08.3,2,2,0,0,0,.61-.33l2.48-1.73c1.55-1.09,2.91-2,4.1-2.86l.06,0a.54.54,0,0,1-.19-.08A.64.64,0,0,1,39.64,76.15Z"/><path class="cls-6" d="M35.32,51.94a2.44,2.44,0,0,0-1.06-.09.19.19,0,0,1-.08-.07l-3.57-.49-4.13-.58h0c-.07.11-.21.31-.44.61a8.51,8.51,0,0,0-.75,1.38,38.38,38.38,0,0,0-2.67,7.93,27,27,0,0,0-.55,8.28c0,.25,0,.44,0,.56s0,.08,0,.12a12.44,12.44,0,0,1,2.59,1.3,11.35,11.35,0,0,1,2.38,2.3c.34.45.77,1,1.27,1.82a12.47,12.47,0,0,1,.89-.94c.14-.13.38-.34.72-.62s.55-.48.71-.64l.19-.19.17-.13c.92-.68,1.6-1.21,2-1.57s1.28-1.08,2.16-1.9l-.27.16c.58-.49,1.12-1,1.65-1.54a24.38,24.38,0,0,0,2.7-2.12h0l.05,0,.14-.15q.23-.22.39-.42a7,7,0,0,1,.6-.52l1.15-.94a3.73,3.73,0,0,1,.44-.32,1,1,0,0,1,.27-.26,2,2,0,0,1,.69-.34Q43,55.25,43,53,40.11,52.59,35.32,51.94Z"/><path class="cls-6" d="M43.12,78.42v-1.7l-1.55.09a1,1,0,0,1-.2.34,1.7,1.7,0,0,1-.31.26l-.36.2c-.25.15-.68.43-1.28.85L35,81.6l-.89.63a9.69,9.69,0,0,0-.84.7,1.57,1.57,0,0,1-.58.39l.34.85a56.75,56.75,0,0,1,2.74,10.69c0,.21.33,2,.89,5.49q.53,3.32,1,5.47c.33,1.53.53,2.56.62,3.07a13,13,0,0,1,.14,3.11l6.33,1a1.1,1.1,0,0,1,0-.18Q43.3,95.46,43.12,78.42Z"/><path class="cls-7" d="M26.3,42.66a9.79,9.79,0,0,0,.17,5.51c.07.19.13.35.17.49a4.72,4.72,0,0,1,.54.07l2.95.44a9.92,9.92,0,0,1-1.05-2.38,14.57,14.57,0,0,1-.52-4.54,21,21,0,0,1,2.06-8.33A21.61,21.61,0,0,0,26.3,42.66Z"/><path class="cls-7" d="M91.1,11.25A3.37,3.37,0,0,0,89.41,10a4.63,4.63,0,0,0-2.16-.23,5.82,5.82,0,0,0-4,2.59,5.69,5.69,0,0,0-.87,2.29,5.93,5.93,0,0,0,0,2.06,8.79,8.79,0,0,1,3.77-4.35,3.14,3.14,0,0,1,1.37-.48,1.6,1.6,0,0,1,.72.1,1.2,1.2,0,0,1,.58.42,1,1,0,0,1,.19.69.9.9,0,0,1-.24.56l-.08.08a.87.87,0,0,1-.32.15L88,14a3.7,3.7,0,0,0-1.24.68l-.35.29a1.77,1.77,0,0,1,.77.31,2.75,2.75,0,0,1,.67.77,4,4,0,0,1,.51,1.57,5.3,5.3,0,0,1,0,1.68,9.94,9.94,0,0,1-1.23,3.1A19.16,19.16,0,0,1,84.42,26a14.81,14.81,0,0,1-3,2.5l.6.23a22.6,22.6,0,0,1,3.87,1.88,10.83,10.83,0,0,1,1.53,1.13,8,8,0,0,1-.26-1.44,9.26,9.26,0,0,1,.26-3,15.77,15.77,0,0,1,1-2.79c.21-.45.65-1.34,1.32-2.66q.84-1.65,1.26-2.7a12.89,12.89,0,0,0,.82-2.84,10.66,10.66,0,0,0,0-3.19A4.75,4.75,0,0,0,91.1,11.25Z"/><path class="cls-7" d="M67.36,17.9A26.56,26.56,0,0,1,65,23a31.34,31.34,0,0,1-2.78,3.82Q60.86,28.42,59,30.32c-.78.8-1.48,1.49-2.09,2.06-1.19,1.14-3,2.78-5.47,4.95l-5.69,5c-.55.49-1,.86-1.22,1.12a9,9,0,0,0-1.08,1.27,11.87,11.87,0,0,0-1.23,2.43A10,10,0,0,0,41.65,49a3.86,3.86,0,0,0,0,1.7l2.85.33a7.69,7.69,0,0,1,.54-2.75A11.5,11.5,0,0,1,48,44.22c.41-.4,1.72-1.5,3.94-3.32,1-.85,2.54-2.19,4.52-4,1.26-1.16,2.17-2,2.73-2.56,1-1,1.87-1.84,2.62-2.65a22.49,22.49,0,0,0,2.67-3.44A18.94,18.94,0,0,0,65.54,26c.22-.49.52-1.25.92-2.28.31-.82.52-1.38.63-1.69.23-.63.41-1.21.55-1.72A20.15,20.15,0,0,0,68.39,14,26,26,0,0,1,67.36,17.9Z"/><path class="cls-7" d="M101.85,31.76c0,.57-.15,1.91-.31,4-.13,1.7-.27,3.09-.42,4.16,0,.22-.07.37-.09.44a1.18,1.18,0,0,1-.14.36c0,.12-.09.27-.14.46-.12.36-.27.79-.48,1.28a11.13,11.13,0,0,1-1.77,3.69,18.31,18.31,0,0,1-1.8,2.15c-.51.54-1.19,1.19-2,2-.58.54-1.12,1-1.61,1.42a24.54,24.54,0,0,0,2.56-.7c.63-.21,1.57-.54,2.81-1,.93-.35,1.64-.63,2.12-.83s.9-.42,1.29-.63a.94.94,0,0,1,0-.09c0-.11.13-.28.26-.51a13.12,13.12,0,0,0,1.07-3,20.68,20.68,0,0,0-.37-11.07A7.33,7.33,0,0,0,101.85,31.76Z"/><path class="cls-7" d="M90.21,39.25c-.24-.66-.63-1.6-1.19-2.83-.27-.62-.49-1.09-.67-1.43a8.15,8.15,0,0,0-.86-1.32,5.2,5.2,0,0,0-.51-.55,18,18,0,0,1,1.61,3.65,20.94,20.94,0,0,1,1,7.14,15.62,15.62,0,0,1-1.15,5.68,13.12,13.12,0,0,1-1.5,2.55A9,9,0,0,0,90,48.27a13.49,13.49,0,0,0,.59-2.34,14.63,14.63,0,0,0,.25-3.73A11.88,11.88,0,0,0,90.21,39.25Z"/><path class="cls-7" d="M78.09,5.48a10.1,10.1,0,0,0-1.54-.92l.47.55c.84,1,1.47,1.77,1.86,2.33a15.33,15.33,0,0,1,1.06,1.74,8.55,8.55,0,0,1,.62-1.25h0A10.64,10.64,0,0,0,78.09,5.48Z"/><path class="cls-7" d="M86.54,16.48a1.13,1.13,0,0,0-.49-.21.68.68,0,0,0-.49.11,1.76,1.76,0,0,0-.38.45,1,1,0,0,1-.38.38,6.4,6.4,0,0,0-.16,1,4.45,4.45,0,0,0,0,.64c0,.1,0,.21,0,.3a8.71,8.71,0,0,0,0,1c0,.19,0,.36,0,.51a1.4,1.4,0,0,1-.15.3,3.25,3.25,0,0,1-.23.28l-.14.15-.19.05a1.24,1.24,0,0,1-.78-.1,1.83,1.83,0,0,1-.62-.48,4.79,4.79,0,0,1-.5-.64c-.4-.57-.75-1.09-1-1.55q0,.15,0,.63c0,.28,0,.51,0,.69a8.49,8.49,0,0,1-.77,3.42,23.92,23.92,0,0,1-1.71,3.07c-.27.42-.47.73-.61.92l-.16.22a10,10,0,0,1,1.83.31h0a2.81,2.81,0,0,1,.73-.48,10.82,10.82,0,0,0,2.7-2,15.44,15.44,0,0,0,3.3-4.7A5.36,5.36,0,0,0,87,17.4,1.63,1.63,0,0,0,86.54,16.48Z"/><path class="cls-7" d="M97.78,34.51a51.06,51.06,0,0,1-1.31-5.41c-.21-1.11-.35-2-.4-2.61a.19.19,0,0,1,0-.08,16.76,16.76,0,0,0-.5,1.75,17.16,17.16,0,0,0-.43,3.91c0,.41,0,.91.05,1.48,0,.33.06.83.12,1.49a64.32,64.32,0,0,1,.07,7.84,21.39,21.39,0,0,1-.3,2.82,14.9,14.9,0,0,1-1.19,3.56l0,.11L94.2,49Q95.28,48,96,47.22a15.89,15.89,0,0,0,1.56-2,10.19,10.19,0,0,0,1.2-2.34.59.59,0,0,1,0-.13,2.16,2.16,0,0,1,.19-.53,8.33,8.33,0,0,0,.25-1.68,10.08,10.08,0,0,0-.44-3.07C98.31,36.17,98,35.17,97.78,34.51Z"/><path class="cls-7" d="M94.58,8.4a10.67,10.67,0,0,0-1.25-1.56c-.37-.4-.64-.68-.82-.84a4.09,4.09,0,0,0-1-.66A4.68,4.68,0,0,0,89.47,5a8.94,8.94,0,0,0-4.3,1.19,7.74,7.74,0,0,0-3.12,3.12,7.42,7.42,0,0,0-.89,3.85c0,.2,0,.4,0,.6a7.38,7.38,0,0,1,1.18-2.48,7,7,0,0,1,2.35-2.05,6.48,6.48,0,0,1,3-.81A5.64,5.64,0,0,1,90.43,9a4.6,4.6,0,0,1,2,1.88,5.41,5.41,0,0,1,.49,1.34,10.77,10.77,0,0,1,.21,1.43,13.7,13.7,0,0,1,0,2.7,11.37,11.37,0,0,1-.7,2.72,25.92,25.92,0,0,1-1.18,2.58L90,24.16a19.12,19.12,0,0,0-1.06,2.61,9.47,9.47,0,0,0-.46,2.8A6.35,6.35,0,0,0,89,32.3l0,.12a2.79,2.79,0,0,1,.24.64,13.22,13.22,0,0,0,.64,1.8,2.4,2.4,0,0,1,.19.55,1,1,0,0,1,0,.24l.31.71c.54,1.25.92,2.22,1.15,2.9a12.26,12.26,0,0,1,.63,3A15.4,15.4,0,0,1,92.09,45a15.91,15.91,0,0,1-.5,2.9,9.72,9.72,0,0,1-2.5,4l-.42.41.83-.06.22-.09A9.33,9.33,0,0,0,91,51.59l.18-.27a16.06,16.06,0,0,0,2.91-8.65,40.58,40.58,0,0,0,0-4.62c-.11-2-.2-3.59-.25-4.62s0-1.85,0-2.52l0-.52c-.24.32-.51.63-.79.94a2.94,2.94,0,0,1-1.89,1.09,1.23,1.23,0,0,1-1-.46A.87.87,0,0,1,90,31a1.22,1.22,0,0,1,.54-.54c.16-.09.4-.21.73-.36a3.74,3.74,0,0,0,1.42-1.33,6.47,6.47,0,0,0,.77-1.85c.11-.42.24-1.06.38-1.93A19.53,19.53,0,0,1,94.24,23a9.26,9.26,0,0,1,1.13-2.56c0-.11,0-.22.08-.34a20.21,20.21,0,0,0,0-9.28A8.94,8.94,0,0,0,94.58,8.4Z"/><path class="cls-7" d="M97.62,23.12a9.36,9.36,0,0,0-.25,3.21,27.69,27.69,0,0,0,.51,3.24c.31,1.53.59,2.73.84,3.58S99.39,35.31,100,37a4,4,0,0,1,.12.43c0-.53.1-1.09.15-1.69.14-1.86.25-3.25.34-4.18a28.33,28.33,0,0,1,1.74-8.06,18.7,18.7,0,0,1,2.54-4.35,23.44,23.44,0,0,1,2.69-2.88,16.9,16.9,0,0,0-4.58.81Q98.57,19.7,97.62,23.12Z"/><path class="cls-7" d="M107.77,30.15c-.7-1.33-1.15-2.23-1.36-2.71a12.1,12.1,0,0,1-1-5.82,11.55,11.55,0,0,1,.18-1.2,17.47,17.47,0,0,0-1.83,3.14,23.58,23.58,0,0,0-1.67,6.5l.08,0a1.56,1.56,0,0,1,.51.47,8.74,8.74,0,0,1,1.23,2.32,22.39,22.39,0,0,1,.71,2.55,19,19,0,0,1,.35,1.88,17.85,17.85,0,0,1,.1,2.19c0,1.17,0,2.13-.07,2.9a17.39,17.39,0,0,1-.44,2.86,16,16,0,0,1-.59,1.78q.69-.6,1.47-1.41c.61-.64,1.12-1.21,1.53-1.72A14.42,14.42,0,0,0,108.22,42a11.32,11.32,0,0,0,.81-9.13A20.4,20.4,0,0,0,107.77,30.15Z"/><path class="cls-7" d="M74.1,13.69a8.74,8.74,0,0,1-.39,1.17A7.07,7.07,0,0,1,72,17.3a3.09,3.09,0,0,1-.31.25c.1.95.15,2,.17,3.17a14.94,14.94,0,0,1-.12,2.38c0,.16-.06.31-.1.45s0,.15,0,.23c0,.27-.07.52-.11.75l-.24,1.12a4.22,4.22,0,0,0,.87-.91,11.82,11.82,0,0,0,.9-1.62c.64-1.32,1.11-2.41,1.42-3.26a15.33,15.33,0,0,0,.88-3.41,18.3,18.3,0,0,0,.11-2.59A28.52,28.52,0,0,0,75,9.15,25.46,25.46,0,0,1,74.1,13.69Z"/><path class="cls-7" d="M83.54,31a3.22,3.22,0,0,1-.32-.31,15.09,15.09,0,0,0-4-1.42,10,10,0,0,0-3-.11,7.81,7.81,0,0,0-2.81.85,6.53,6.53,0,0,0-2.24,1.93,5.63,5.63,0,0,0-1.07,2.72,3,3,0,0,1,0,.37,1.17,1.17,0,0,1-.1.37.7.7,0,0,1-.24.3.44.44,0,0,1-.34.09.54.54,0,0,1-.39-.31,1.34,1.34,0,0,1-.13-.54,5.2,5.2,0,0,1,.37-2.31,6.27,6.27,0,0,1,1.27-2,9.33,9.33,0,0,1,4-2.44c.38-.12.76-.22,1.12-.3a.88.88,0,0,1,.28-.3c.12-.09.31-.21.56-.37a2.63,2.63,0,0,0,.64-.76q1.1-1.68,1.56-2.58a10,10,0,0,0,1-2.82,15.68,15.68,0,0,0,.12-2.48c0-1,0-1.67-.09-2.08a3.1,3.1,0,0,1,0-.49c-.07-.21-.14-.42-.19-.63a8.83,8.83,0,0,1-.2-3.93,6.87,6.87,0,0,0-.76-2.13l-.42-.63a31.38,31.38,0,0,0-2.7-3.35c.22.77.44,1.69.65,2.76a38.46,38.46,0,0,1,.69,5,17.19,17.19,0,0,1-.36,5,18.52,18.52,0,0,1-.77,2.48c-.36,1-.72,1.89-1.07,2.63a16.5,16.5,0,0,1-1.42,2.44,4.37,4.37,0,0,1-2.08,1.75l-.12,0a1.05,1.05,0,0,1-.22.4.75.75,0,0,1-.14.12A20.21,20.21,0,0,1,68.65,32a31.85,31.85,0,0,1-2.22,3.14c-.65.81-1.48,1.79-2.51,2.95-1.28,1.43-2.06,2.32-2.34,2.66a26.07,26.07,0,0,0-2.11,2.83,12.17,12.17,0,0,0-2.12,6.65,9.27,9.27,0,0,0,.25,2.06l2,.13,1.22.07a6.57,6.57,0,0,1,.39-2.14,16.79,16.79,0,0,1,1.22-2.62c.41-.72.73-1.23.94-1.53s.74-.91,1.49-1.75,1.75-2,3-3.52a22.87,22.87,0,0,0,1.7-2.28A6.26,6.26,0,0,0,70.5,36a3,3,0,0,1,.11-.59A.67.67,0,0,1,71,35a.49.49,0,0,1,.44,0,.7.7,0,0,1,.34.32,1.6,1.6,0,0,1,.1.91,7.64,7.64,0,0,1-.89,2.55,19.3,19.3,0,0,1-2.43,3.41c-1.25,1.4-2.18,2.45-2.79,3.16a19.66,19.66,0,0,0-2.44,3.46,9.69,9.69,0,0,0-1.14,3.69l2.86.13v-.12a10.83,10.83,0,0,1,1.66-4.88c.38-.62.86-1.34,1.46-2.14l1.59-2.07a18,18,0,0,0,1-1.52,6.8,6.8,0,0,0,.73-1.67c0-.18.08-.32.1-.4a1.71,1.71,0,0,1,.17-.38.81.81,0,0,1,.29-.29.49.49,0,0,1,.38-.08.64.64,0,0,1,.48.45,1.47,1.47,0,0,1,0,.67,5.31,5.31,0,0,1-.45,1.3,18.76,18.76,0,0,1-1.69,2.72c-.42.57-1.07,1.42-1.94,2.56a16.38,16.38,0,0,0-1.66,2.76,8.21,8.21,0,0,0-.81,3v.09l2.09.06a11.64,11.64,0,0,0,3.84-2.45,5.62,5.62,0,0,0,1-1.16,6.67,6.67,0,0,0,.38-.73q.27-.59.36-.75l.33-.57a4.76,4.76,0,0,0,.27-.6A3.55,3.55,0,0,0,74.7,45c-.08-.6-.28-1-.61-1.11a1,1,0,0,0-.77,0,2,2,0,0,0-.95.8c-.11.2-.19.34-.26.44a.77.77,0,0,1-.37.31.53.53,0,0,1-.54-.17.75.75,0,0,1-.25-.55,1.72,1.72,0,0,1,.56-1.08,3.67,3.67,0,0,1,1.52-1A2.24,2.24,0,0,1,74,42.5a1.74,1.74,0,0,1,.88.25,2.09,2.09,0,0,1,.86,1A4,4,0,0,1,76,45.05a4.91,4.91,0,0,1-.16,1.79,9.67,9.67,0,0,1-.54,1.25A18,18,0,0,1,74,50.31a10.5,10.5,0,0,1-2.83,2.51q3.45,0,6.8,0a6,6,0,0,1,.76-.49,14.24,14.24,0,0,0,3.51-2.75,8.13,8.13,0,0,0,2-3.84A7.78,7.78,0,0,0,84,41.87a12.35,12.35,0,0,0-1.78-3.53A7,7,0,0,0,80.6,36.6a7.16,7.16,0,0,0-1.79-.78l-.51-.14a2.75,2.75,0,0,1,.37.28,6.78,6.78,0,0,1,1,1.12,8,8,0,0,1,.76,1.1,6,6,0,0,1,.48,1.27c.08.33.17.77.27,1.33a9.1,9.1,0,0,1,.18,1.66,5.35,5.35,0,0,1-.19,1.24q-.12.47-.39,1.2a4.58,4.58,0,0,1-.27.6,1.06,1.06,0,0,1-.44.43.95.95,0,0,1-1.28-.62,1.31,1.31,0,0,1,0-.52c0-.11.07-.28.14-.52.14-.43.24-.75.29-1a4.13,4.13,0,0,0,.14-1,7.51,7.51,0,0,0-.15-1.37,10.39,10.39,0,0,0-.38-1.42,4.48,4.48,0,0,0-1.25-1.84l-.22-.18,0,0-.53-.55a12.67,12.67,0,0,0-1-1.07,6.21,6.21,0,0,0-.54-.41l-.57-.36-1.32-.81L72.91,34l.37-.15a8,8,0,0,1,1.7-.48,7.34,7.34,0,0,1,2.13,0,15.89,15.89,0,0,1,2.08.47,13.62,13.62,0,0,1,1.44.47,5.58,5.58,0,0,1,1.31.71,8,8,0,0,1,1.31,1.34,15.58,15.58,0,0,1,2.53,4.44,9.77,9.77,0,0,1,.51,5,10.07,10.07,0,0,1-2.36,4.91,14.12,14.12,0,0,1-2.12,2l2.8-.11a1.17,1.17,0,0,1,.16-.15,9.52,9.52,0,0,0,2.78-4.34A16.06,16.06,0,0,0,88.23,43a19.34,19.34,0,0,0-1.14-6.53A13.71,13.71,0,0,0,83.54,31Z"/><path class="cls-7" d="M69.64,16.72a16.18,16.18,0,0,1-.38,2.5c-.18.78-.45,1.71-.79,2.78a43.08,43.08,0,0,1-1.92,4.92,22.27,22.27,0,0,1-2.75,4.46c-.45.54-1,1.12-1.58,1.74-.41.41-1,1-1.71,1.64q-4.17,3.93-6,5.59c-.91.83-1.76,1.57-2.56,2.21l-1.28,1c-.51.41-.94.75-1.26,1a11.9,11.9,0,0,0-2.66,3.15A7.53,7.53,0,0,0,46,49.7a6,6,0,0,0-.16,1.5q5.38.57,10.39.95c0-.31-.07-.56-.09-.77a13.26,13.26,0,0,1-.09-1.71,13.47,13.47,0,0,1,2.46-7,29.14,29.14,0,0,1,2.28-3c.11-.14.94-1.08,2.49-2.84.92-1,1.69-1.94,2.31-2.75a27.2,27.2,0,0,0,2-2.95,18.94,18.94,0,0,0,1.66-3.57,1.89,1.89,0,0,1,0-.47c.14-1,.25-1.95.32-2.94a1.75,1.75,0,0,1,0-.24,3.45,3.45,0,0,1,.08-.77,16.6,16.6,0,0,0,.08-5.67Z"/><path class="cls-7" d="M58.13,12.89A24.67,24.67,0,0,1,54.52,20a34.33,34.33,0,0,1-3.88,4.2Q49.41,25.37,44.08,30q-4,3.51-6.36,6a20.27,20.27,0,0,0-1.9,2.29l-.13.2.31-.27a20.36,20.36,0,0,1,2.74-1.87c.71-.41,1.69-.93,2.95-1.57l6-3q3.42-1.74,5.87-3.18c.48-.28,1-.56,1.4-.84a.6.6,0,0,1,0-.19,2.27,2.27,0,0,1,.31-.79,28.89,28.89,0,0,0,1.54-3.33c.39-1,.8-2.14,1.22-3.46.47-1.5.84-2.83,1.12-4a32.46,32.46,0,0,0,.71-4.08,20.51,20.51,0,0,0-.15-5.68A41.54,41.54,0,0,1,58.13,12.89Z"/><path class="cls-7" d="M56.75,28.17c-1.52,1-3.29,2-5.3,3.1q-1.66.89-5.49,2.79-3.55,1.75-5.47,2.79c-.89.5-1.61.92-2.15,1.26a16.35,16.35,0,0,0-2,1.49,8.47,8.47,0,0,0-2.66,4.13,6.83,6.83,0,0,0-.18,2.48,8.06,8.06,0,0,0,.62,2.43,2.81,2.81,0,0,1,.18.57,1.39,1.39,0,0,1,.16.3l.13.3q2.9.39,5.7.74a5.73,5.73,0,0,1,0-1.24A10.39,10.39,0,0,1,41,46.68a13,13,0,0,1,1.46-2.85,12,12,0,0,1,1.21-1.37c.3-.29.75-.7,1.36-1.24Q50.9,36.09,53.3,34c.8-.68,1.4-1.21,1.79-1.57s.92-.92,1.63-1.68l2.05-2.17q1.6-1.7,2.37-2.58a29,29,0,0,0,2.14-2.76,23.12,23.12,0,0,0,1.24-2.07,28.2,28.2,0,0,1-2.94,3.19A37.54,37.54,0,0,1,56.75,28.17Z"/><path class="cls-7" d="M63.51,18.62a1.31,1.31,0,0,1-.73.05.94.94,0,0,1-.6-.37,1.11,1.11,0,0,1-.22-.68,3.29,3.29,0,0,1,.08-.75q.3-1.68.39-2.25a12.11,12.11,0,0,0,.11-2.26,11.79,11.79,0,0,0-.36-2.3c-.13-.48-.35-1.22-.67-2.23-.15-.46-.29-.87-.42-1.24a21.55,21.55,0,0,1,.16,4.06,33.06,33.06,0,0,1-.76,5.28A53.57,53.57,0,0,1,56.9,26.46a35.54,35.54,0,0,0,3.57-2.8,21.66,21.66,0,0,0,5.12-6.58c.14-.3.34-.76.61-1.37a15.44,15.44,0,0,1-1.54,2.05A2.87,2.87,0,0,1,63.51,18.62Z"/><path class="cls-7" d="M50.87,17a90.58,90.58,0,0,1-7.14,5.58Q38.45,26.37,36.46,28l-.38.31a21.48,21.48,0,0,0-4.29,6.14,19.31,19.31,0,0,0-1.93,8.8A11.72,11.72,0,0,0,30.5,47,6.58,6.58,0,0,0,32,49.44l.66.1c-.13-.33-.28-.74-.44-1.24s-.32-1-.4-1.36a6,6,0,0,1,.18-3.8c.18-.53.51-1.3,1-2.3a27.61,27.61,0,0,1,1.8-3.35,22.89,22.89,0,0,1,2.38-2.81q2.23-2.3,6.22-5.77c3.25-2.84,5.37-4.71,6.35-5.64s1.86-1.81,2.53-2.56a21.84,21.84,0,0,0,2.19-2.86,23.56,23.56,0,0,0,2.46-5.55,38.4,38.4,0,0,0,1.25-4.91,22.17,22.17,0,0,1-1.4,2.68A32.13,32.13,0,0,1,50.87,17Z"/></svg>