<svg id="Layer_1" data-name="Layer 1" xmlns="http://www.w3.org/2000/svg" viewBox="0 0 611.02 199.02"><defs><style>.cls-1{fill:none;}.cls-2{fill:#fff;}</style></defs><title>masthead-name</title><path class="cls-1" d="M318.72,128.17l-.3,0c.1.17.21.34.3.51Z"/><path class="cls-1" d="M179.15,133a9.55,9.55,0,0,0-1.44.11c-.14.57-.27,1.16-.37,1.8h7.27A7.42,7.42,0,0,0,179.15,133Z"/><path class="cls-1" d="M312.69,168.64a15.11,15.11,0,0,1-3.15,1.62l0,0q1.79,1.44,6.24,1.44a16.45,16.45,0,0,0,2.63-.2,13.74,13.74,0,0,0,.26-2.7v-6.6l-.11.06A18.31,18.31,0,0,1,312.69,168.64Z"/><path class="cls-1" d="M319.22,145.38A11.69,11.69,0,0,0,317,137.9q-2.22-2.82-6.68-2.82a13.08,13.08,0,0,0-1.7.12,15.93,15.93,0,0,0-.31,3.27v.9a11.7,11.7,0,0,0,2.28,7.57q2.28,2.82,6.73,2.82a11.27,11.27,0,0,0,1.57-.11,16.26,16.26,0,0,0,.34-3.38Z"/><path class="cls-1" d="M425.93,147.55q0-12.47-8.81-12.47a11.53,11.53,0,0,0-1.59.12,22.41,22.41,0,0,0-.51,5.06v.79q0,12.76,9.1,12.77a10.43,10.43,0,0,0,1.27-.08,24,24,0,0,0,.54-5.39Z"/><path class="cls-1" d="M180.16,152.63a9.13,9.13,0,0,0,6.68,2.48c2.77,0,4.74-.56,5.89-1.69a8.85,8.85,0,0,0,.82-.92H180Z"/><path class="cls-1" d="M214.14,149.58a22.16,22.16,0,0,1-2.47,7.87h6a19.28,19.28,0,0,1-1.3-6.25,15,15,0,0,1-1.56-1C214.59,150,214.37,149.78,214.14,149.58Z"/><path class="cls-1" d="M211.18,145.5H207c0,.67.06,1.35.06,2.05v1.91H214A11.76,11.76,0,0,1,211.18,145.5Z"/><path class="cls-1" d="M534.55,152.63a9.13,9.13,0,0,0,6.68,2.48c2.77,0,4.74-.56,5.89-1.69a8.85,8.85,0,0,0,.82-.92H534.43Z"/><path class="cls-1" d="M533.54,133a9.42,9.42,0,0,0-1.43.11,17.8,17.8,0,0,0-.38,1.8H539A7.42,7.42,0,0,0,533.54,133Z"/><path class="cls-1" d="M561.46,147.55v1.91h4.84v-4h-4.89C561.44,146.17,561.46,146.85,561.46,147.55Z"/><polygon points="7.66 121.32 0.66 121.32 0.66 174.68 21.25 174.68 21.25 167.68 7.66 167.68 7.66 121.32"/><path d="M40.73,136.3a7.28,7.28,0,0,0-1.59-5.1A5.33,5.33,0,0,0,35,129.47a6.15,6.15,0,0,0-5.05,2,8.24,8.24,0,0,0-1.64,5,5.28,5.28,0,0,1,3.84,1.71,7.28,7.28,0,0,1,1.59,5.1v31.38H54.12v-7H40.73Z"/><path d="M28.4,122.3l-.15.09v.15C28.3,122.46,28.36,122.38,28.4,122.3Z"/><path d="M73.5,136.3A7.42,7.42,0,0,0,72,131.2a5.19,5.19,0,0,0-4.11-1.73,6.14,6.14,0,0,0-5,2,8.31,8.31,0,0,0-1.65,5A5.16,5.16,0,0,1,65,138.2a7.42,7.42,0,0,1,1.54,5.1v31.38H87.09v-7H73.5Z"/><polygon points="101.61 121.32 94.61 121.32 94.61 174.68 115.2 174.68 115.2 167.68 101.61 167.68 101.61 121.32"/><path d="M111.8,111.55a10.7,10.7,0,0,1-7.67-2.87,9.7,9.7,0,0,1-3-7.33,11.42,11.42,0,0,1,.32-2.67,10.27,10.27,0,0,0-4.3,2.39,9.54,9.54,0,0,0-3,7.28,9.7,9.7,0,0,0,3,7.33,10.17,10.17,0,0,0,4.48,2.48v-3.84h12.22a9.17,9.17,0,0,0,1.53-3.25A13,13,0,0,1,111.8,111.55Z"/><polygon points="130.51 100.83 123.51 100.83 123.51 174.68 144.01 174.68 144.01 167.68 130.51 167.68 130.51 100.83"/><path d="M186.15,126a8,8,0,0,0-5.84,2.23,10.27,10.27,0,0,0-2.6,4.88,9.55,9.55,0,0,1,1.44-.11,7.42,7.42,0,0,1,5.46,1.91h9.56a10.89,10.89,0,0,0-2.13-6.53Q190.11,126,186.15,126Z"/><path d="M174.27,167.18a26.59,26.59,0,0,1-9.41-5.24,23.87,23.87,0,0,1-6.18-8.57,29,29,0,0,1-2.23-11.73v-.79a28.09,28.09,0,0,1,2.32-11.68,27.67,27.67,0,0,1,2.3-4.06,25.69,25.69,0,0,0-9.3,11.06c-.28.63-.53,1.28-.76,2v20.52c.2.59.42,1.17.67,1.73a23.87,23.87,0,0,0,6.18,8.57,26.59,26.59,0,0,0,9.41,5.24A37.94,37.94,0,0,0,179.15,176q13,0,19.9-5.1a19.41,19.41,0,0,0,5.34-5.92q-6.75,4-18.24,4A37.94,37.94,0,0,1,174.27,167.18Z"/><path d="M207,145.5H177.14a11.36,11.36,0,0,0,2.9,7h13.51a7.51,7.51,0,0,0,1.41-3h12.11v-1.91C207.07,146.85,207.05,146.17,207,145.5Z"/><path d="M241.68,169q-12,0-18.56-4.66a15.12,15.12,0,0,1-5.43-6.86h-6a18.88,18.88,0,0,1-2,3,15.55,15.55,0,0,0,6.5,10.84q6.58,4.66,18.56,4.66a47.51,47.51,0,0,0,10.3-1,22.77,22.77,0,0,0,8-3.32,15.63,15.63,0,0,0,5.14-5.84l0-.06a24.31,24.31,0,0,1-6.14,2.22A47.51,47.51,0,0,1,241.68,169Z"/><path d="M214.07,145.5h-2.89a11.76,11.76,0,0,0,2.83,4h.15a.5.5,0,0,1,0,.12c.23.2.45.41.69.6a15,15,0,0,0,1.56,1c0-.25,0-.49,0-.75h18.91a8.08,8.08,0,0,0,1.73,4c.82.93,2.36,1.39,4.6,1.39a6.48,6.48,0,0,0,4-1,3.1,3.1,0,0,0,1.29-2.57,3,3,0,0,0-2-2.68,25.92,25.92,0,0,0-7.33-1.68,60.36,60.36,0,0,1-9.25-1.68,19,19,0,0,1-6.44-3,11.74,11.74,0,0,1-3.76-4.9,19,19,0,0,1-1.24-7.33,16.25,16.25,0,0,1,1.77-7.74,19.41,19.41,0,0,0-1.74,1.08,16.44,16.44,0,0,0-4.62,4.86,32.61,32.61,0,0,1,1.83,11.4Z"/><path d="M245.1,127a5.57,5.57,0,0,0-4-1.29,5.87,5.87,0,0,0-3.77,1,3.2,3.2,0,0,0-1.18,2.58,2.78,2.78,0,0,0,1.83,2.57,20.55,20.55,0,0,0,6.19,1.39A64.22,64.22,0,0,1,254.35,135a27.91,27.91,0,0,1,3.91,1.34,21.09,21.09,0,0,0-1.6-5.75h-9.73A6.84,6.84,0,0,0,245.1,127Z"/><path d="M303.6,184.51a26.42,26.42,0,0,1-8.71-3.91,18.47,18.47,0,0,1-5.45-5.94c-.1-.19-.19-.38-.28-.57H280a20,20,0,0,0,2.42,7.57,18.47,18.47,0,0,0,5.45,5.94,26.42,26.42,0,0,0,8.71,3.91,47.94,47.94,0,0,0,12.23,1.39q15,0,22.76-6.19a19.38,19.38,0,0,0,4.66-5.37q-7.51,4.54-20.42,4.56A47.94,47.94,0,0,1,303.6,184.51Z"/><path d="M318.72,128.17v.47c-.09-.17-.2-.34-.3-.51-.36,0-.73,0-1.11,0q-4.46,0-6.73,2.77a9.85,9.85,0,0,0-2,4.35,13.08,13.08,0,0,1,1.7-.12q4.45,0,6.68,2.82a11.69,11.69,0,0,1,2.23,7.48v.89a16.26,16.26,0,0,1-.34,3.38,7.51,7.51,0,0,0,5.06-2.76,11.89,11.89,0,0,0,2.28-7.62v-.89A11.69,11.69,0,0,0,324,130.9,7.45,7.45,0,0,0,318.72,128.17Z"/><path d="M309.54,170.26a15.11,15.11,0,0,0,3.15-1.62,18.31,18.31,0,0,0,5.92-6.34,18.1,18.1,0,0,1-9,2.11,22.41,22.41,0,0,1-8.56-1.63,20,20,0,0,1-7-4.8,23.07,23.07,0,0,1-4.81-7.87,31,31,0,0,1-1.78-10.94v-.89a31,31,0,0,1,1.73-10.74,26.27,26.27,0,0,1,2.25-4.64,20.63,20.63,0,0,0-4.49,3.67,23.46,23.46,0,0,0-4.76,8,31,31,0,0,0-1.73,10.74v.89a31,31,0,0,0,1.78,10.94A23.07,23.07,0,0,0,287,165a19.74,19.74,0,0,0,2.38,2.11h18A5.73,5.73,0,0,0,309.54,170.26Z"/><path d="M325.72,121.32h-.19l.19.32Z"/><path d="M318.46,171.54a7.53,7.53,0,0,0,5.09-2.67,11.32,11.32,0,0,0,2.17-7v-6.73a18.27,18.27,0,0,1-6,6.53c-.32.21-.64.41-1,.6v6.6A13.74,13.74,0,0,1,318.46,171.54Z"/><path d="M375.55,122.42c-.45.22-.89.45-1.32.71v2.08A27.83,27.83,0,0,1,375.55,122.42Z"/><polygon points="353.64 121.32 346.64 121.32 346.64 174.68 367.23 174.68 367.23 167.68 353.64 167.68 353.64 121.32"/><path d="M374.48,140.81a28.32,28.32,0,0,1,9.88-.88v-6.77a15.68,15.68,0,0,0-5.77,1.9A8.52,8.52,0,0,0,374.48,140.81Z"/><path d="M423.93,169a37.32,37.32,0,0,1-11.69-1.79,27,27,0,0,1-9.45-5.24,24.75,24.75,0,0,1-6.34-8.57,28,28,0,0,1-2.32-11.73v-.79a28.09,28.09,0,0,1,2.32-11.68,28.47,28.47,0,0,1,2.33-4.12,24.37,24.37,0,0,0-7.42,7.65v.23h-.15a28.72,28.72,0,0,0-1.76,3.24,28.09,28.09,0,0,0-2.32,11.68v.79a28,28,0,0,0,2.32,11.73,24.75,24.75,0,0,0,6.34,8.57,27,27,0,0,0,9.45,5.24A37.32,37.32,0,0,0,416.93,176a36.14,36.14,0,0,0,11.73-1.88,28.18,28.18,0,0,0,9.55-5.45,24.64,24.64,0,0,0,4.24-4.91,29.45,29.45,0,0,1-6.79,3.36A36.14,36.14,0,0,1,423.93,169Z"/><path d="M424.12,128.08q-7,0-8.59,7.12a11.53,11.53,0,0,1,1.59-.12q8.82,0,8.81,12.47v.8a24,24,0,0,1-.54,5.39,7.14,7.14,0,0,0,5.37-3.09q2.17-3.17,2.17-9.3v-.8Q432.93,128.09,424.12,128.08Z"/><polygon points="491.56 121.32 486.72 121.32 481.48 138.35 483.92 146.2 491.56 121.32"/><path d="M454.52,121.32h-8.09a26,26,0,0,1,5.17,7.5,27.53,27.53,0,0,1,2.32,11.54v.79a32.5,32.5,0,0,1-.23,3.88l10.95,29.65h22.08l2.56-7H471.64Z"/><path d="M540.54,126a8,8,0,0,0-5.84,2.23,10.26,10.26,0,0,0-2.59,4.88,9.42,9.42,0,0,1,1.43-.11,7.42,7.42,0,0,1,5.46,1.91h9.56a10.89,10.89,0,0,0-2.13-6.53Q544.5,126,540.54,126Z"/><path d="M528.66,167.18a26.54,26.54,0,0,1-9.4-5.24,23.89,23.89,0,0,1-6.19-8.57,29,29,0,0,1-2.23-11.73v-.79a28.09,28.09,0,0,1,2.33-11.68,26.74,26.74,0,0,1,2.29-4.06,27.23,27.23,0,0,0-2.91,2.25,26.36,26.36,0,0,0-6.38,8.81,28.09,28.09,0,0,0-2.33,11.68v.79a29,29,0,0,0,2.23,11.73,23.89,23.89,0,0,0,6.19,8.57,26.54,26.54,0,0,0,9.4,5.24A37.94,37.94,0,0,0,533.54,176q13,0,19.9-5.1a19.45,19.45,0,0,0,5.35-5.92c-4.51,2.67-10.58,4-18.25,4A37.94,37.94,0,0,1,528.66,167.18Z"/><path d="M561.41,145.5H531.53a11.36,11.36,0,0,0,2.9,7h13.51a7.51,7.51,0,0,0,1.41-3h12.11v-1.91C561.46,146.85,561.44,146.17,561.41,145.5Z"/><path d="M573.3,121.32h-7v7a31.46,31.46,0,0,1,2.16,12.23v4.95H566.3v4h2.26A22.65,22.65,0,0,1,566.3,157v17.71h20.6v-7H573.3Z"/><path d="M595.22,122.42c-.45.22-.9.45-1.32.71v2.08A24,24,0,0,1,595.22,122.42Z"/><path d="M594.15,140.81a28.29,28.29,0,0,1,9.87-.88v-6.77a15.68,15.68,0,0,0-5.77,1.9A8.5,8.5,0,0,0,594.15,140.81Z"/><path class="cls-2" d="M76.86,112.83a22.7,22.7,0,0,0-9.5,2,22.13,22.13,0,0,0-8,6.49,14,14,0,0,0-5.4-6.34,16.55,16.55,0,0,0-8.86-2.18,17.69,17.69,0,0,0-10.39,2.92,22,22,0,0,0-6.29,6.55c0,.08-.1.16-.15.24v-8.22H7.66v53.36H28.25V137.19c0-.25,0-.46.05-.7a8.24,8.24,0,0,1,1.64-5,6.15,6.15,0,0,1,5.05-2,5.33,5.33,0,0,1,4.15,1.73,7.28,7.28,0,0,1,1.59,5.1v31.38H61.12V137.19c0-.25,0-.46,0-.7a8.31,8.31,0,0,1,1.65-5,6.14,6.14,0,0,1,5-2A5.19,5.19,0,0,1,72,131.2a7.42,7.42,0,0,1,1.54,5.1v31.38H94.09V132.34q0-9.6-4.75-14.56T76.86,112.83Z"/><polygon class="cls-2" points="101.61 118.16 101.61 121.32 101.61 167.68 115.2 167.68 122.2 167.68 122.2 114.32 113.83 114.32 101.61 114.32 101.61 118.16"/><path class="cls-2" d="M104.13,108.68a10.7,10.7,0,0,0,7.67,2.87,13,13,0,0,0,3.56-.48,10.33,10.33,0,0,0,4.27-2.39,9.62,9.62,0,0,0,3.06-7.33,9.47,9.47,0,0,0-3.06-7.28,11.14,11.14,0,0,0-7.83-2.82,10.79,10.79,0,0,0-7.67,2.82,9.26,9.26,0,0,0-2.7,4.61,11.42,11.42,0,0,0-.32,2.67A9.7,9.7,0,0,0,104.13,108.68Z"/><polygon class="cls-2" points="151.01 93.83 130.51 93.83 130.51 100.83 130.51 167.68 144.01 167.68 151.01 167.68 151.01 158.64 151.01 138.12 151.01 93.83"/><path class="cls-2" d="M214.14,149.58a.5.5,0,0,0,0-.12H195a7.51,7.51,0,0,1-1.41,3,8.85,8.85,0,0,1-.82.92c-1.15,1.13-3.12,1.69-5.89,1.69a9.13,9.13,0,0,1-6.68-2.48l-.12-.13a11.36,11.36,0,0,1-2.9-7h36.93v-4.95a32.61,32.61,0,0,0-1.83-11.4c-.13-.35-.26-.69-.4-1a23.6,23.6,0,0,0-15-13.66,35,35,0,0,0-10.74-1.64,34.21,34.21,0,0,0-11.54,1.93,28.24,28.24,0,0,0-9.45,5.6,26.12,26.12,0,0,0-4.09,4.75,27.67,27.67,0,0,0-2.3,4.06,28.09,28.09,0,0,0-2.32,11.68v.79a29,29,0,0,0,2.23,11.73,23.87,23.87,0,0,0,6.18,8.57,26.59,26.59,0,0,0,9.41,5.24A37.94,37.94,0,0,0,186.15,169q11.5,0,18.24-4c.58-.34,1.13-.7,1.66-1.08a20.26,20.26,0,0,0,3.57-3.4,18.88,18.88,0,0,0,2-3A22.16,22.16,0,0,0,214.14,149.58Zm-29.53-14.67h-7.27c.1-.64.23-1.23.37-1.8a10.27,10.27,0,0,1,2.6-4.88,8,8,0,0,1,5.84-2.23q4,0,5.89,2.38a10.89,10.89,0,0,1,2.13,6.53Z"/><path class="cls-2" d="M261.43,138a19,19,0,0,0-3.17-1.73,27.91,27.91,0,0,0-3.91-1.34,64.22,64.22,0,0,0-10.19-1.73,20.55,20.55,0,0,1-6.19-1.39,2.78,2.78,0,0,1-1.83-2.57,3.2,3.2,0,0,1,1.18-2.58,5.87,5.87,0,0,1,3.77-1,5.57,5.57,0,0,1,4,1.29,6.84,6.84,0,0,1,1.83,3.56h18.51a20.8,20.8,0,0,0-2.42-8.31,16,16,0,0,0-5.1-5.45,22.09,22.09,0,0,0-7.53-3,45.27,45.27,0,0,0-9.6-1,38.63,38.63,0,0,0-9.31,1.09,23,23,0,0,0-7.62,3.37,16.78,16.78,0,0,0-5.15,5.69l-.11.23a16.25,16.25,0,0,0-1.77,7.74,19,19,0,0,0,1.24,7.33,11.74,11.74,0,0,0,3.76,4.9,19,19,0,0,0,6.44,3,60.36,60.36,0,0,0,9.25,1.68,25.92,25.92,0,0,1,7.33,1.68,3,3,0,0,1,2,2.68,3.1,3.1,0,0,1-1.29,2.57,6.48,6.48,0,0,1-4,1c-2.24,0-3.78-.46-4.6-1.39a8.08,8.08,0,0,1-1.73-4H216.34c0,.26,0,.5,0,.75a19.28,19.28,0,0,0,1.3,6.25,15.12,15.12,0,0,0,5.43,6.86q6.58,4.66,18.56,4.66a47.51,47.51,0,0,0,10.3-1,24.31,24.31,0,0,0,6.14-2.22,18.47,18.47,0,0,0,1.83-1.1,15.63,15.63,0,0,0,5.14-5.84,18.68,18.68,0,0,0,1.84-8.61,17.58,17.58,0,0,0-1.34-7.23A11.69,11.69,0,0,0,261.43,138Z"/><path class="cls-2" d="M325.72,121.32v.32l-.19-.32a16.74,16.74,0,0,0-5.94-6.16,19.41,19.41,0,0,0-10.1-2.33,21.24,21.24,0,0,0-8.56,1.74,20.44,20.44,0,0,0-7,5,21.5,21.5,0,0,0-2.51,3.33,26.27,26.27,0,0,0-2.25,4.64,31,31,0,0,0-1.73,10.74v.89a31,31,0,0,0,1.78,10.94A23.07,23.07,0,0,0,294,158a20,20,0,0,0,7,4.8,22.41,22.41,0,0,0,8.56,1.63,18.1,18.1,0,0,0,9-2.11l.11-.06c.33-.19.65-.39,1-.6a18.27,18.27,0,0,0,6-6.53v6.73a11.32,11.32,0,0,1-2.17,7,7.53,7.53,0,0,1-5.09,2.67,16.45,16.45,0,0,1-2.63.2q-4.45,0-6.24-1.44l0,0a5.73,5.73,0,0,1-2.13-3.17H287a20.13,20.13,0,0,0,2.14,7c.09.19.18.38.28.57a18.47,18.47,0,0,0,5.45,5.94,26.42,26.42,0,0,0,8.71,3.91,47.94,47.94,0,0,0,12.23,1.39q12.9,0,20.42-4.56a23.67,23.67,0,0,0,2.34-1.63q7.73-6.19,7.73-18.17V114.32h-20.6Zm.5,18a11.89,11.89,0,0,1-2.28,7.62,7.51,7.51,0,0,1-5.06,2.76,11.27,11.27,0,0,1-1.57.11q-4.46,0-6.73-2.82a11.7,11.7,0,0,1-2.28-7.57v-.9a15.93,15.93,0,0,1,.31-3.27,9.85,9.85,0,0,1,2-4.35q2.28-2.78,6.73-2.77c.38,0,.75,0,1.11,0l.3,0A7.45,7.45,0,0,1,324,130.9a11.69,11.69,0,0,1,2.23,7.48Z"/><path class="cls-2" d="M391.36,132.7V113.63a18.43,18.43,0,0,0-10.25,2.57,16.27,16.27,0,0,0-5.56,6.22,27.83,27.83,0,0,0-1.32,2.79V114.32H353.64v53.36h20.59V143.33a12.52,12.52,0,0,1,.25-2.52,8.52,8.52,0,0,1,4.11-5.75,15.68,15.68,0,0,1,5.77-1.9,34.08,34.08,0,0,1,6.85-.23h.15Z"/><path class="cls-2" d="M453.92,140.36a27.53,27.53,0,0,0-2.32-11.54,26,26,0,0,0-5.17-7.5c-.38-.39-.76-.79-1.17-1.16a27.62,27.62,0,0,0-9.45-5.45,37.25,37.25,0,0,0-23.52.05,27.41,27.41,0,0,0-9.5,5.6,25.7,25.7,0,0,0-4,4.69,28.47,28.47,0,0,0-2.33,4.12,28.09,28.09,0,0,0-2.32,11.68v.79a28,28,0,0,0,2.32,11.73,24.75,24.75,0,0,0,6.34,8.57,27,27,0,0,0,9.45,5.24A37.32,37.32,0,0,0,423.93,169a36.14,36.14,0,0,0,11.73-1.88,29.45,29.45,0,0,0,6.79-3.36,28.16,28.16,0,0,0,2.76-2.09,25.32,25.32,0,0,0,6.39-8.76,26.78,26.78,0,0,0,2.09-7.85,32.5,32.5,0,0,0,.23-3.88Zm-21,1q0,6.14-2.17,9.3a7.14,7.14,0,0,1-5.37,3.09,10.43,10.43,0,0,1-1.27.08q-9.11,0-9.1-12.77v-.79a22.41,22.41,0,0,1,.51-5.06q1.64-7.11,8.59-7.12,8.82,0,8.81,12.47Z"/><polygon class="cls-2" points="513.22 114.32 493.72 114.32 491.56 121.32 483.92 146.2 481.48 138.35 474.02 114.32 451.94 114.32 454.52 121.32 471.64 167.68 489.27 167.68 493.72 167.68 513.22 114.32"/><path class="cls-2" d="M566.3,149.46H549.35a7.51,7.51,0,0,1-1.41,3,8.85,8.85,0,0,1-.82.92c-1.15,1.13-3.12,1.69-5.89,1.69a9.13,9.13,0,0,1-6.68-2.48l-.12-.13a11.36,11.36,0,0,1-2.9-7h36.93v-4.95a31.46,31.46,0,0,0-2.16-12.23,1.46,1.46,0,0,0-.07-.19,24,24,0,0,0-6-8.61,24.23,24.23,0,0,0-8.91-5,35,35,0,0,0-10.74-1.64A34.11,34.11,0,0,0,529,114.76a28.18,28.18,0,0,0-9.46,5.6,26.12,26.12,0,0,0-4.09,4.75,26.74,26.74,0,0,0-2.29,4.06,28.09,28.09,0,0,0-2.33,11.68v.79a29,29,0,0,0,2.23,11.73,23.89,23.89,0,0,0,6.19,8.57,26.54,26.54,0,0,0,9.4,5.24A37.94,37.94,0,0,0,540.54,169c7.67,0,13.74-1.35,18.25-4,.57-.34,1.13-.7,1.65-1.08a19.31,19.31,0,0,0,5.86-6.9,22.65,22.65,0,0,0,2.26-7.51ZM539,134.91h-7.27a17.8,17.8,0,0,1,.38-1.8,10.26,10.26,0,0,1,2.59-4.88,8,8,0,0,1,5.84-2.23q4,0,5.89,2.38a10.89,10.89,0,0,1,2.13,6.53Z"/><path class="cls-2" d="M600.78,116.2a16.19,16.19,0,0,0-5.56,6.22,24,24,0,0,0-1.32,2.79V114.32H573.3v53.36h20.6V143.33a11.83,11.83,0,0,1,.25-2.52,8.5,8.5,0,0,1,4.1-5.75,15.68,15.68,0,0,1,5.77-1.9,34.81,34.81,0,0,1,7-.23v-19.3A18.39,18.39,0,0,0,600.78,116.2Z"/></svg>