<svg xmlns="http://www.w3.org/2000/svg" viewBox="0 0 24.02 24.02"><defs><style>.cls-1{fill:#fff;}</style></defs><title>close</title><g id="Layer_2" data-name="Layer 2"><g id="Layer_1-2" data-name="Layer 1"><path class="cls-1" d="M14.43,12l9.09-9.09A1.71,1.71,0,1,0,21.1.5L12,9.59,2.92.5A1.71,1.71,0,0,0,.5,2.92L9.59,12,.5,21.1a1.71,1.71,0,0,0,0,2.42,1.73,1.73,0,0,0,1.21.5,1.71,1.71,0,0,0,1.21-.5L12,14.43l9.09,9.09a1.71,1.71,0,0,0,1.21.5,1.73,1.73,0,0,0,1.21-.5,1.71,1.71,0,0,0,0-2.42Z"/></g></g></svg>